<svg width="195" height="195" viewBox="0 0 195 195" fill="none" xmlns="http://www.w3.org/2000/svg">
<path d="M5.01989 0H0.277344V4.74255H5.01989V0Z" fill="black"/>
<path d="M9.76244 0H5.01989V4.74255H9.76244V0Z" fill="black"/>
<path d="M14.505 0H9.76244V4.74255H14.505V0Z" fill="black"/>
<path d="M19.2475 0H14.505V4.74255H19.2475V0Z" fill="black"/>
<path d="M23.9901 0H19.2475V4.74255H23.9901V0Z" fill="black"/>
<path d="M28.7326 0H23.9901V4.74255H28.7326V0Z" fill="black"/>
<path d="M33.4752 0H28.7326V4.74255H33.4752V0Z" fill="black"/>
<path d="M42.9603 0H38.2177V4.74255H42.9603V0Z" fill="black"/>
<path d="M52.4454 0H47.7028V4.74255H52.4454V0Z" fill="black"/>
<path d="M61.9305 0H57.1879V4.74255H61.9305V0Z" fill="black"/>
<path d="M66.673 0H61.9305V4.74255H66.673V0Z" fill="black"/>
<path d="M71.4156 0H66.673V4.74255H71.4156V0Z" fill="black"/>
<path d="M76.1581 0H71.4156V4.74255H76.1581V0Z" fill="black"/>
<path d="M85.6432 0H80.9007V4.74255H85.6432V0Z" fill="black"/>
<path d="M95.1283 0H90.3857V4.74255H95.1283V0Z" fill="black"/>
<path d="M99.8708 0H95.1283V4.74255H99.8708V0Z" fill="black"/>
<path d="M133.069 0H128.326V4.74255H133.069V0Z" fill="black"/>
<path d="M142.554 0H137.811V4.74255H142.554V0Z" fill="black"/>
<path d="M147.296 0H142.554V4.74255H147.296V0Z" fill="black"/>
<path d="M152.039 0H147.296V4.74255H152.039V0Z" fill="black"/>
<path d="M156.781 0H152.039V4.74255H156.781V0Z" fill="black"/>
<path d="M166.267 0H161.524V4.74255H166.267V0Z" fill="black"/>
<path d="M171.009 0H166.267V4.74255H171.009V0Z" fill="black"/>
<path d="M175.752 0H171.009V4.74255H175.752V0Z" fill="black"/>
<path d="M180.494 0H175.752V4.74255H180.494V0Z" fill="black"/>
<path d="M185.237 0H180.494V4.74255H185.237V0Z" fill="black"/>
<path d="M189.979 0H185.237V4.74255H189.979V0Z" fill="black"/>
<path d="M194.722 0H189.979V4.74255H194.722V0Z" fill="black"/>
<path d="M5.01989 4.74255H0.277344V9.4851H5.01989V4.74255Z" fill="black"/>
<path d="M33.4752 4.74255H28.7326V9.4851H33.4752V4.74255Z" fill="black"/>
<path d="M61.9305 4.74255H57.1879V9.4851H61.9305V4.74255Z" fill="black"/>
<path d="M71.4156 4.74255H66.673V9.4851H71.4156V4.74255Z" fill="black"/>
<path d="M76.1581 4.74255H71.4156V9.4851H76.1581V4.74255Z" fill="black"/>
<path d="M85.6432 4.74255H80.9007V9.4851H85.6432V4.74255Z" fill="black"/>
<path d="M90.3857 4.74255H85.6432V9.4851H90.3857V4.74255Z" fill="black"/>
<path d="M99.8708 4.74255H95.1283V9.4851H99.8708V4.74255Z" fill="black"/>
<path d="M109.356 4.74255H104.613V9.4851H109.356V4.74255Z" fill="black"/>
<path d="M123.584 4.74255H118.841V9.4851H123.584V4.74255Z" fill="black"/>
<path d="M128.326 4.74255H123.584V9.4851H128.326V4.74255Z" fill="black"/>
<path d="M137.811 4.74255H133.069V9.4851H137.811V4.74255Z" fill="black"/>
<path d="M147.296 4.74255H142.554V9.4851H147.296V4.74255Z" fill="black"/>
<path d="M166.267 4.74255H161.524V9.4851H166.267V4.74255Z" fill="black"/>
<path d="M194.722 4.74255H189.979V9.4851H194.722V4.74255Z" fill="black"/>
<path d="M5.01989 9.4851H0.277344V14.2276H5.01989V9.4851Z" fill="black"/>
<path d="M14.505 9.4851H9.76244V14.2276H14.505V9.4851Z" fill="black"/>
<path d="M19.2475 9.4851H14.505V14.2276H19.2475V9.4851Z" fill="black"/>
<path d="M23.9901 9.4851H19.2475V14.2276H23.9901V9.4851Z" fill="black"/>
<path d="M33.4752 9.4851H28.7326V14.2276H33.4752V9.4851Z" fill="black"/>
<path d="M52.4454 9.4851H47.7028V14.2276H52.4454V9.4851Z" fill="black"/>
<path d="M57.1879 9.4851H52.4454V14.2276H57.1879V9.4851Z" fill="black"/>
<path d="M61.9305 9.4851H57.1879V14.2276H61.9305V9.4851Z" fill="black"/>
<path d="M66.673 9.4851H61.9305V14.2276H66.673V9.4851Z" fill="black"/>
<path d="M80.9007 9.4851H76.1581V14.2276H80.9007V9.4851Z" fill="black"/>
<path d="M85.6432 9.4851H80.9007V14.2276H85.6432V9.4851Z" fill="black"/>
<path d="M90.3857 9.4851H85.6432V14.2276H90.3857V9.4851Z" fill="black"/>
<path d="M99.8708 9.4851H95.1283V14.2276H99.8708V9.4851Z" fill="black"/>
<path d="M114.098 9.4851H109.356V14.2276H114.098V9.4851Z" fill="black"/>
<path d="M118.841 9.4851H114.098V14.2276H118.841V9.4851Z" fill="black"/>
<path d="M128.326 9.4851H123.584V14.2276H128.326V9.4851Z" fill="black"/>
<path d="M133.069 9.4851H128.326V14.2276H133.069V9.4851Z" fill="black"/>
<path d="M137.811 9.4851H133.069V14.2276H137.811V9.4851Z" fill="black"/>
<path d="M147.296 9.4851H142.554V14.2276H147.296V9.4851Z" fill="black"/>
<path d="M152.039 9.4851H147.296V14.2276H152.039V9.4851Z" fill="black"/>
<path d="M166.267 9.4851H161.524V14.2276H166.267V9.4851Z" fill="black"/>
<path d="M175.752 9.4851H171.009V14.2276H175.752V9.4851Z" fill="black"/>
<path d="M180.494 9.4851H175.752V14.2276H180.494V9.4851Z" fill="black"/>
<path d="M185.237 9.4851H180.494V14.2276H185.237V9.4851Z" fill="black"/>
<path d="M194.722 9.4851H189.979V14.2276H194.722V9.4851Z" fill="black"/>
<path d="M5.01989 14.2276H0.277344V18.9702H5.01989V14.2276Z" fill="black"/>
<path d="M14.505 14.2276H9.76244V18.9702H14.505V14.2276Z" fill="black"/>
<path d="M19.2475 14.2276H14.505V18.9702H19.2475V14.2276Z" fill="black"/>
<path d="M23.9901 14.2276H19.2475V18.9702H23.9901V14.2276Z" fill="black"/>
<path d="M33.4752 14.2276H28.7326V18.9702H33.4752V14.2276Z" fill="black"/>
<path d="M47.7028 14.2276H42.9603V18.9702H47.7028V14.2276Z" fill="black"/>
<path d="M52.4454 14.2276H47.7028V18.9702H52.4454V14.2276Z" fill="black"/>
<path d="M57.1879 14.2276H52.4454V18.9702H57.1879V14.2276Z" fill="black"/>
<path d="M71.4156 14.2276H66.673V18.9702H71.4156V14.2276Z" fill="black"/>
<path d="M95.1283 14.2276H90.3857V18.9702H95.1283V14.2276Z" fill="black"/>
<path d="M104.613 14.2276H99.8708V18.9702H104.613V14.2276Z" fill="black"/>
<path d="M118.841 14.2276H114.098V18.9702H118.841V14.2276Z" fill="black"/>
<path d="M123.584 14.2276H118.841V18.9702H123.584V14.2276Z" fill="black"/>
<path d="M137.811 14.2276H133.069V18.9702H137.811V14.2276Z" fill="black"/>
<path d="M147.296 14.2276H142.554V18.9702H147.296V14.2276Z" fill="black"/>
<path d="M152.039 14.2276H147.296V18.9702H152.039V14.2276Z" fill="black"/>
<path d="M156.781 14.2276H152.039V18.9702H156.781V14.2276Z" fill="black"/>
<path d="M166.267 14.2276H161.524V18.9702H166.267V14.2276Z" fill="black"/>
<path d="M175.752 14.2276H171.009V18.9702H175.752V14.2276Z" fill="black"/>
<path d="M180.494 14.2276H175.752V18.9702H180.494V14.2276Z" fill="black"/>
<path d="M185.237 14.2276H180.494V18.9702H185.237V14.2276Z" fill="black"/>
<path d="M194.722 14.2276H189.979V18.9702H194.722V14.2276Z" fill="black"/>
<path d="M5.01989 18.9702H0.277344V23.7127H5.01989V18.9702Z" fill="black"/>
<path d="M14.505 18.9702H9.76244V23.7127H14.505V18.9702Z" fill="black"/>
<path d="M19.2475 18.9702H14.505V23.7127H19.2475V18.9702Z" fill="black"/>
<path d="M23.9901 18.9702H19.2475V23.7127H23.9901V18.9702Z" fill="black"/>
<path d="M33.4752 18.9702H28.7326V23.7127H33.4752V18.9702Z" fill="black"/>
<path d="M47.7028 18.9702H42.9603V23.7127H47.7028V18.9702Z" fill="black"/>
<path d="M57.1879 18.9702H52.4454V23.7127H57.1879V18.9702Z" fill="black"/>
<path d="M71.4156 18.9702H66.673V23.7127H71.4156V18.9702Z" fill="black"/>
<path d="M76.1581 18.9702L71.4156 18.9702V23.7127H76.1581V18.9702Z" fill="black"/>
<path d="M80.9007 18.9702H76.1581V23.7127H80.9007V18.9702Z" fill="black"/>
<path d="M95.1283 18.9702H90.3857V23.7127H95.1283V18.9702Z" fill="black"/>
<path d="M99.8708 18.9702H95.1283V23.7127H99.8708V18.9702Z" fill="black"/>
<path d="M104.613 18.9702H99.8708V23.7127H104.613V18.9702Z" fill="black"/>
<path d="M118.841 18.9702H114.098V23.7127H118.841V18.9702Z" fill="black"/>
<path d="M137.811 18.9702H133.069V23.7127H137.811V18.9702Z" fill="black"/>
<path d="M147.296 18.9702H142.554V23.7127H147.296V18.9702Z" fill="black"/>
<path d="M156.781 18.9702H152.039V23.7127H156.781V18.9702Z" fill="black"/>
<path d="M166.267 18.9702H161.524V23.7127H166.267V18.9702Z" fill="black"/>
<path d="M175.752 18.9702H171.009V23.7127H175.752V18.9702Z" fill="black"/>
<path d="M180.494 18.9702H175.752V23.7127H180.494V18.9702Z" fill="black"/>
<path d="M185.237 18.9702H180.494V23.7127H185.237V18.9702Z" fill="black"/>
<path d="M194.722 18.9702H189.979V23.7127H194.722V18.9702Z" fill="black"/>
<path d="M5.01989 23.7127H0.277344V28.4553H5.01989V23.7127Z" fill="black"/>
<path d="M33.4752 23.7127H28.7326V28.4553H33.4752V23.7127Z" fill="black"/>
<path d="M57.1879 23.7127H52.4454V28.4553H57.1879V23.7127Z" fill="black"/>
<path d="M80.9007 23.7127H76.1581V28.4553H80.9007V23.7127Z" fill="black"/>
<path d="M85.6432 23.7127H80.9007V28.4553H85.6432V23.7127Z" fill="black"/>
<path d="M90.3857 23.7127H85.6432V28.4553H90.3857V23.7127Z" fill="black"/>
<path d="M99.8708 23.7127H95.1283V28.4553H99.8708V23.7127Z" fill="black"/>
<path d="M104.613 23.7127H99.8708V28.4553H104.613V23.7127Z" fill="black"/>
<path d="M109.356 23.7127H104.613V28.4553H109.356V23.7127Z" fill="black"/>
<path d="M114.098 23.7127H109.356V28.4553H114.098V23.7127Z" fill="black"/>
<path d="M128.326 23.7127H123.584V28.4553H128.326V23.7127Z" fill="black"/>
<path d="M137.811 23.7127H133.069V28.4553H137.811V23.7127Z" fill="black"/>
<path d="M152.039 23.7127H147.296V28.4553H152.039V23.7127Z" fill="black"/>
<path d="M156.781 23.7127H152.039V28.4553H156.781V23.7127Z" fill="black"/>
<path d="M166.267 23.7127H161.524V28.4553H166.267V23.7127Z" fill="black"/>
<path d="M194.722 23.7127H189.979V28.4553H194.722V23.7127Z" fill="black"/>
<path d="M5.01989 28.4553H0.277344V33.1978H5.01989V28.4553Z" fill="black"/>
<path d="M9.76244 28.4553H5.01989V33.1978H9.76244V28.4553Z" fill="black"/>
<path d="M14.505 28.4553H9.76244V33.1978H14.505V28.4553Z" fill="black"/>
<path d="M19.2475 28.4553H14.505V33.1978H19.2475V28.4553Z" fill="black"/>
<path d="M23.9901 28.4553H19.2475V33.1978H23.9901V28.4553Z" fill="black"/>
<path d="M28.7326 28.4553H23.9901V33.1978H28.7326V28.4553Z" fill="black"/>
<path d="M33.4752 28.4553H28.7326V33.1978H33.4752V28.4553Z" fill="black"/>
<path d="M42.9603 28.4553H38.2177V33.1978H42.9603V28.4553Z" fill="black"/>
<path d="M52.4454 28.4553H47.7028V33.1978H52.4454V28.4553Z" fill="black"/>
<path d="M61.9305 28.4553H57.1879V33.1978H61.9305V28.4553Z" fill="black"/>
<path d="M71.4156 28.4553H66.673V33.1978H71.4156V28.4553Z" fill="black"/>
<path d="M80.9007 28.4553H76.1581V33.1978H80.9007V28.4553Z" fill="black"/>
<path d="M90.3857 28.4553H85.6432V33.1978H90.3857V28.4553Z" fill="black"/>
<path d="M99.8708 28.4553H95.1283V33.1978H99.8708V28.4553Z" fill="black"/>
<path d="M109.356 28.4553H104.613V33.1978H109.356V28.4553Z" fill="black"/>
<path d="M118.841 28.4553H114.098V33.1978H118.841V28.4553Z" fill="black"/>
<path d="M128.326 28.4553H123.584V33.1978H128.326V28.4553Z" fill="black"/>
<path d="M137.811 28.4553H133.069V33.1978H137.811V28.4553Z" fill="black"/>
<path d="M147.296 28.4553H142.554V33.1978H147.296V28.4553Z" fill="black"/>
<path d="M156.781 28.4553H152.039V33.1978H156.781V28.4553Z" fill="black"/>
<path d="M166.267 28.4553H161.524V33.1978H166.267V28.4553Z" fill="black"/>
<path d="M171.009 28.4553H166.267V33.1978H171.009V28.4553Z" fill="black"/>
<path d="M175.752 28.4553H171.009V33.1978H175.752V28.4553Z" fill="black"/>
<path d="M180.494 28.4553H175.752V33.1978H180.494V28.4553Z" fill="black"/>
<path d="M185.237 28.4553H180.494V33.1978H185.237V28.4553Z" fill="black"/>
<path d="M189.979 28.4553H185.237V33.1978H189.979V28.4553Z" fill="black"/>
<path d="M194.722 28.4553H189.979V33.1978H194.722V28.4553Z" fill="black"/>
<path d="M61.9305 33.1978H57.1879V37.9404H61.9305V33.1978Z" fill="black"/>
<path d="M76.1581 33.1978H71.4156V37.9404H76.1581V33.1978Z" fill="black"/>
<path d="M85.6432 33.1978H80.9007V37.9404H85.6432V33.1978Z" fill="black"/>
<path d="M99.8708 33.1978H95.1283V37.9404H99.8708V33.1978Z" fill="black"/>
<path d="M114.098 33.1978H109.356V37.9404H114.098V33.1978Z" fill="black"/>
<path d="M118.841 33.1978H114.098V37.9404H118.841V33.1978Z" fill="black"/>
<path d="M128.326 33.1978H123.584V37.9404H128.326V33.1978Z" fill="black"/>
<path d="M133.069 33.1978H128.326V37.9404H133.069V33.1978Z" fill="black"/>
<path d="M137.811 33.1978H133.069V37.9404H137.811V33.1978Z" fill="black"/>
<path d="M142.554 33.1978H137.811V37.9404H142.554V33.1978Z" fill="black"/>
<path d="M147.296 33.1978H142.554V37.9404H147.296V33.1978Z" fill="black"/>
<path d="M9.76244 37.9404H5.01989V42.6829H9.76244V37.9404Z" fill="black"/>
<path d="M14.505 37.9404H9.76244V42.6829H14.505V37.9404Z" fill="black"/>
<path d="M19.2475 37.9404H14.505V42.6829H19.2475V37.9404Z" fill="black"/>
<path d="M33.4752 37.9404H28.7326V42.6829H33.4752V37.9404Z" fill="black"/>
<path d="M38.2177 37.9404H33.4752V42.6829H38.2177V37.9404Z" fill="black"/>
<path d="M42.9603 37.9404H38.2177V42.6829H42.9603V37.9404Z" fill="black"/>
<path d="M47.7028 37.9404H42.9603V42.6829H47.7028V37.9404Z" fill="black"/>
<path d="M52.4454 37.9404H47.7028V42.6829H52.4454V37.9404Z" fill="black"/>
<path d="M95.1283 37.9404H90.3857V42.6829H95.1283V37.9404Z" fill="black"/>
<path d="M128.326 37.9404H123.584V42.6829H128.326V37.9404Z" fill="black"/>
<path d="M133.069 37.9404H128.326V42.6829H133.069V37.9404Z" fill="black"/>
<path d="M147.296 37.9404H142.554V42.6829H147.296V37.9404Z" fill="black"/>
<path d="M156.781 37.9404H152.039V42.6829H156.781V37.9404Z" fill="black"/>
<path d="M161.524 37.9404H156.781V42.6829H161.524V37.9404Z" fill="black"/>
<path d="M194.722 37.9404H189.979V42.6829H194.722V37.9404Z" fill="black"/>
<path d="M5.01989 42.6829H0.277344V47.4255H5.01989V42.6829Z" fill="black"/>
<path d="M9.76244 42.6829H5.01989V47.4255H9.76244V42.6829Z" fill="black"/>
<path d="M14.505 42.6829H9.76244V47.4255H14.505V42.6829Z" fill="black"/>
<path d="M38.2177 42.6829H33.4752V47.4255H38.2177V42.6829Z" fill="black"/>
<path d="M42.9603 42.6829H38.2177V47.4255H42.9603V42.6829Z" fill="black"/>
<path d="M47.7028 42.6829H42.9603V47.4255H47.7028V42.6829Z" fill="black"/>
<path d="M57.1879 42.6829H52.4454V47.4255H57.1879V42.6829Z" fill="black"/>
<path d="M71.4156 42.6829H66.673V47.4255H71.4156V42.6829Z" fill="black"/>
<path d="M80.9007 42.6829H76.1581V47.4255H80.9007V42.6829Z" fill="black"/>
<path d="M90.3857 42.6829H85.6432V47.4255H90.3857V42.6829Z" fill="black"/>
<path d="M95.1283 42.6829H90.3857V47.4255H95.1283V42.6829Z" fill="black"/>
<path d="M99.8708 42.6829H95.1283V47.4255H99.8708V42.6829Z" fill="black"/>
<path d="M118.841 42.6829H114.098V47.4255H118.841V42.6829Z" fill="black"/>
<path d="M133.069 42.6829H128.326V47.4255H133.069V42.6829Z" fill="black"/>
<path d="M142.554 42.6829H137.811V47.4255H142.554V42.6829Z" fill="black"/>
<path d="M152.039 42.6829H147.296V47.4255H152.039V42.6829Z" fill="black"/>
<path d="M161.524 42.6829H156.781V47.4255H161.524V42.6829Z" fill="black"/>
<path d="M171.009 42.6829H166.267V47.4255H171.009V42.6829Z" fill="black"/>
<path d="M189.979 42.6829H185.237V47.4255H189.979V42.6829Z" fill="black"/>
<path d="M14.505 47.4255H9.76244V52.168H14.505V47.4255Z" fill="black"/>
<path d="M23.9901 47.4255H19.2475V52.168H23.9901V47.4255Z" fill="black"/>
<path d="M33.4752 47.4255H28.7326V52.168H33.4752V47.4255Z" fill="black"/>
<path d="M47.7028 47.4255H42.9603V52.168H47.7028V47.4255Z" fill="black"/>
<path d="M66.673 47.4255H61.9305V52.168H66.673V47.4255Z" fill="black"/>
<path d="M71.4156 47.4255H66.673V52.168H71.4156V47.4255Z" fill="black"/>
<path d="M80.9007 47.4255H76.1581V52.168H80.9007V47.4255Z" fill="black"/>
<path d="M85.6432 47.4255H80.9007V52.168H85.6432V47.4255Z" fill="black"/>
<path d="M95.1283 47.4255H90.3857V52.168H95.1283V47.4255Z" fill="black"/>
<path d="M104.613 47.4255H99.8708V52.168H104.613V47.4255Z" fill="black"/>
<path d="M109.356 47.4255H104.613V52.168H109.356V47.4255Z" fill="black"/>
<path d="M118.841 47.4255H114.098V52.168H118.841V47.4255Z" fill="black"/>
<path d="M123.584 47.4255H118.841V52.168H123.584V47.4255Z" fill="black"/>
<path d="M128.326 47.4255H123.584V52.168H128.326V47.4255Z" fill="black"/>
<path d="M133.069 47.4255H128.326V52.168H133.069V47.4255Z" fill="black"/>
<path d="M137.811 47.4255H133.069V52.168H137.811V47.4255Z" fill="black"/>
<path d="M147.296 47.4255H142.554V52.168H147.296V47.4255Z" fill="black"/>
<path d="M152.039 47.4255H147.296V52.168H152.039V47.4255Z" fill="black"/>
<path d="M156.781 47.4255H152.039V52.168H156.781V47.4255Z" fill="black"/>
<path d="M171.009 47.4255H166.267V52.168H171.009V47.4255Z" fill="black"/>
<path d="M180.494 47.4255H175.752V52.168H180.494V47.4255Z" fill="black"/>
<path d="M185.237 47.4255H180.494V52.168H185.237V47.4255Z" fill="black"/>
<path d="M14.505 52.168H9.76244V56.9106H14.505V52.168Z" fill="black"/>
<path d="M19.2475 52.168H14.505V56.9106H19.2475L19.2475 52.168Z" fill="black"/>
<path d="M23.9901 52.168H19.2475L19.2475 56.9106H23.9901V52.168Z" fill="black"/>
<path d="M28.7326 52.168H23.9901V56.9106H28.7326V52.168Z" fill="black"/>
<path d="M38.2177 52.168H33.4752V56.9106H38.2177V52.168Z" fill="black"/>
<path d="M52.4454 52.168H47.7028V56.9106H52.4454V52.168Z" fill="black"/>
<path d="M66.673 52.168H61.9305V56.9106H66.673V52.168Z" fill="black"/>
<path d="M71.4156 52.168H66.673V56.9106H71.4156V52.168Z" fill="black"/>
<path d="M76.1581 52.168H71.4156V56.9106H76.1581V52.168Z" fill="black"/>
<path d="M80.9007 52.168H76.1581V56.9106H80.9007V52.168Z" fill="black"/>
<path d="M99.8708 52.168H95.1283V56.9106H99.8708V52.168Z" fill="black"/>
<path d="M109.356 52.168H104.613V56.9106H109.356V52.168Z" fill="black"/>
<path d="M114.098 52.168H109.356V56.9106H114.098V52.168Z" fill="black"/>
<path d="M118.841 52.168H114.098V56.9106H118.841V52.168Z" fill="black"/>
<path d="M123.584 52.168H118.841V56.9106H123.584V52.168Z" fill="black"/>
<path d="M156.781 52.168H152.039V56.9106H156.781V52.168Z" fill="black"/>
<path d="M166.267 52.168H161.524V56.9106H166.267V52.168Z" fill="black"/>
<path d="M171.009 52.168H166.267V56.9106H171.009V52.168Z" fill="black"/>
<path d="M175.752 52.168H171.009V56.9106H175.752V52.168Z" fill="black"/>
<path d="M180.494 52.168H175.752V56.9106H180.494V52.168Z" fill="black"/>
<path d="M5.01989 56.9106H0.277344V61.6531H5.01989V56.9106Z" fill="black"/>
<path d="M23.9901 56.9106H19.2475L19.2475 61.6531H23.9901V56.9106Z" fill="black"/>
<path d="M28.7326 56.9106H23.9901V61.6531H28.7326V56.9106Z" fill="black"/>
<path d="M33.4752 56.9106H28.7326V61.6531H33.4752V56.9106Z" fill="black"/>
<path d="M42.9603 56.9106H38.2177V61.6531H42.9603V56.9106Z" fill="black"/>
<path d="M47.7028 56.9106H42.9603V61.6531H47.7028V56.9106Z" fill="black"/>
<path d="M61.9305 56.9106H57.1879V61.6531H61.9305V56.9106Z" fill="black"/>
<path d="M71.4156 56.9106H66.673V61.6531H71.4156V56.9106Z" fill="black"/>
<path d="M90.3857 56.9106H85.6432V61.6531H90.3857V56.9106Z" fill="black"/>
<path d="M95.1283 56.9106H90.3857V61.6531H95.1283V56.9106Z" fill="black"/>
<path d="M104.613 56.9106H99.8708V61.6531H104.613V56.9106Z" fill="black"/>
<path d="M109.356 56.9106H104.613V61.6531H109.356V56.9106Z" fill="black"/>
<path d="M123.584 56.9106H118.841V61.6531H123.584V56.9106Z" fill="black"/>
<path d="M142.554 56.9106H137.811V61.6531H142.554V56.9106Z" fill="black"/>
<path d="M147.296 56.9106H142.554V61.6531H147.296V56.9106Z" fill="black"/>
<path d="M152.039 56.9106H147.296V61.6531H152.039V56.9106Z" fill="black"/>
<path d="M161.524 56.9106H156.781V61.6531H161.524V56.9106Z" fill="black"/>
<path d="M171.009 56.9106H166.267V61.6531H171.009V56.9106Z" fill="black"/>
<path d="M189.979 56.9106H185.237V61.6531H189.979V56.9106Z" fill="black"/>
<path d="M194.722 56.9106H189.979V61.6531H194.722V56.9106Z" fill="black"/>
<path d="M9.76244 61.6531H5.01989V66.3957H9.76244V61.6531Z" fill="black"/>
<path d="M14.505 61.6531H9.76244V66.3957H14.505V61.6531Z" fill="black"/>
<path d="M28.7326 61.6531H23.9901V66.3957H28.7326V61.6531Z" fill="black"/>
<path d="M42.9603 61.6531H38.2177V66.3957H42.9603V61.6531Z" fill="black"/>
<path d="M66.673 61.6531H61.9305V66.3957H66.673V61.6531Z" fill="black"/>
<path d="M76.1581 61.6531H71.4156V66.3957H76.1581V61.6531Z" fill="black"/>
<path d="M80.9007 61.6531H76.1581V66.3957H80.9007V61.6531Z" fill="black"/>
<path d="M90.3857 61.6531H85.6432V66.3957H90.3857V61.6531Z" fill="black"/>
<path d="M99.8708 61.6531H95.1283V66.3957H99.8708V61.6531Z" fill="black"/>
<path d="M104.613 61.6531H99.8708V66.3957H104.613V61.6531Z" fill="black"/>
<path d="M109.356 61.6531H104.613V66.3957H109.356V61.6531Z" fill="black"/>
<path d="M114.098 61.6531H109.356V66.3957H114.098V61.6531Z" fill="black"/>
<path d="M128.326 61.6531H123.584V66.3957H128.326V61.6531Z" fill="black"/>
<path d="M137.811 61.6531H133.069V66.3957H137.811V61.6531Z" fill="black"/>
<path d="M147.296 61.6531H142.554V66.3957H147.296V61.6531Z" fill="black"/>
<path d="M161.524 61.6531H156.781V66.3957H161.524V61.6531Z" fill="black"/>
<path d="M166.267 61.6531H161.524V66.3957H166.267V61.6531Z" fill="black"/>
<path d="M171.009 61.6531H166.267V66.3957H171.009V61.6531Z" fill="black"/>
<path d="M175.752 61.6531H171.009V66.3957H175.752V61.6531Z" fill="black"/>
<path d="M33.4752 66.3957H28.7326V71.1382H33.4752V66.3957Z" fill="black"/>
<path d="M42.9603 66.3957H38.2177V71.1382H42.9603V66.3957Z" fill="black"/>
<path d="M47.7028 66.3957H42.9603V71.1382H47.7028V66.3957Z" fill="black"/>
<path d="M57.1879 66.3957H52.4454V71.1382H57.1879V66.3957Z" fill="black"/>
<path d="M61.9305 66.3957H57.1879V71.1382H61.9305V66.3957Z" fill="black"/>
<path d="M66.673 66.3957H61.9305V71.1382H66.673V66.3957Z" fill="black"/>
<path d="M85.6432 66.3957H80.9007V71.1382H85.6432V66.3957Z" fill="black"/>
<path d="M90.3857 66.3957H85.6432V71.1382H90.3857V66.3957Z" fill="black"/>
<path d="M109.356 66.3957H104.613V71.1382H109.356V66.3957Z" fill="black"/>
<path d="M123.584 66.3957H118.841V71.1382H123.584V66.3957Z" fill="black"/>
<path d="M128.326 66.3957H123.584V71.1382H128.326V66.3957Z" fill="black"/>
<path d="M133.069 66.3957H128.326V71.1382H133.069V66.3957Z" fill="black"/>
<path d="M147.296 66.3957H142.554V71.1382H147.296V66.3957Z" fill="black"/>
<path d="M152.039 66.3957H147.296V71.1382H152.039V66.3957Z" fill="black"/>
<path d="M171.009 66.3957H166.267V71.1382H171.009V66.3957Z" fill="black"/>
<path d="M194.722 66.3957H189.979V71.1382H194.722V66.3957Z" fill="black"/>
<path d="M19.2475 71.1382H14.505V75.8808H19.2475V71.1382Z" fill="black"/>
<path d="M28.7326 71.1382H23.9901V75.8808H28.7326V71.1382Z" fill="black"/>
<path d="M38.2177 71.1382H33.4752V75.8808H38.2177V71.1382Z" fill="black"/>
<path d="M42.9603 71.1382H38.2177V75.8808H42.9603V71.1382Z" fill="black"/>
<path d="M47.7028 71.1382H42.9603V75.8808H47.7028V71.1382Z" fill="black"/>
<path d="M57.1879 71.1382H52.4454V75.8808H57.1879V71.1382Z" fill="black"/>
<path d="M90.3857 71.1382H85.6432V75.8808H90.3857V71.1382Z" fill="black"/>
<path d="M95.1283 71.1382H90.3857V75.8808H95.1283V71.1382Z" fill="black"/>
<path d="M118.841 71.1382H114.098V75.8808H118.841V71.1382Z" fill="black"/>
<path d="M123.584 71.1382H118.841V75.8808H123.584V71.1382Z" fill="black"/>
<path d="M128.326 71.1382H123.584V75.8808H128.326V71.1382Z" fill="black"/>
<path d="M133.069 71.1382H128.326V75.8808H133.069V71.1382Z" fill="black"/>
<path d="M137.811 71.1382H133.069V75.8808H137.811V71.1382Z" fill="black"/>
<path d="M142.554 71.1382H137.811V75.8808H142.554V71.1382Z" fill="black"/>
<path d="M161.524 71.1382H156.781V75.8808H161.524V71.1382Z" fill="black"/>
<path d="M166.267 71.1382H161.524V75.8808H166.267V71.1382Z" fill="black"/>
<path d="M175.752 71.1382H171.009V75.8808H175.752V71.1382Z" fill="black"/>
<path d="M194.722 71.1382H189.979V75.8808H194.722V71.1382Z" fill="black"/>
<path d="M19.2475 75.8808H14.505V80.6233H19.2475V75.8808Z" fill="black"/>
<path d="M23.9901 75.8808H19.2475V80.6233H23.9901V75.8808Z" fill="black"/>
<path d="M33.4752 75.8808H28.7326V80.6233H33.4752V75.8808Z" fill="black"/>
<path d="M42.9603 75.8808H38.2177V80.6233H42.9603V75.8808Z" fill="black"/>
<path d="M80.9007 75.8808H76.1581V80.6233H80.9007V75.8808Z" fill="black"/>
<path d="M99.8708 75.8808H95.1283V80.6233H99.8708V75.8808Z" fill="black"/>
<path d="M104.613 75.8808H99.8708V80.6233H104.613V75.8808Z" fill="black"/>
<path d="M109.356 75.8808H104.613V80.6233H109.356V75.8808Z" fill="black"/>
<path d="M118.841 75.8808H114.098V80.6233H118.841V75.8808Z" fill="black"/>
<path d="M123.584 75.8808H118.841V80.6233H123.584V75.8808Z" fill="black"/>
<path d="M128.326 75.8808H123.584V80.6233H128.326V75.8808Z" fill="black"/>
<path d="M137.811 75.8808H133.069V80.6233H137.811V75.8808Z" fill="black"/>
<path d="M147.296 75.8808H142.554V80.6233H147.296V75.8808Z" fill="black"/>
<path d="M152.039 75.8808H147.296V80.6233H152.039V75.8808Z" fill="black"/>
<path d="M161.524 75.8808H156.781V80.6233H161.524V75.8808Z" fill="black"/>
<path d="M171.009 75.8808H166.267V80.6233H171.009V75.8808Z" fill="black"/>
<path d="M175.752 75.8808H171.009V80.6233H175.752V75.8808Z" fill="black"/>
<path d="M185.237 75.8808H180.494V80.6233H185.237V75.8808Z" fill="black"/>
<path d="M189.979 75.8808H185.237V80.6233H189.979V75.8808Z" fill="black"/>
<path d="M5.01989 80.6233H0.277344V85.3659H5.01989V80.6233Z" fill="black"/>
<path d="M23.9901 80.6233H19.2475L19.2475 85.3659H23.9901V80.6233Z" fill="black"/>
<path d="M28.7326 80.6233H23.9901V85.3659H28.7326V80.6233Z" fill="black"/>
<path d="M42.9603 80.6233H38.2177V85.3659H42.9603V80.6233Z" fill="black"/>
<path d="M47.7028 80.6233H42.9603V85.3659H47.7028V80.6233Z" fill="black"/>
<path d="M80.9007 80.6233H76.1581V85.3659H80.9007V80.6233Z" fill="black"/>
<path d="M85.6432 80.6233H80.9007V85.3659H85.6432V80.6233Z" fill="black"/>
<path d="M95.1283 80.6233H90.3857V85.3659H95.1283V80.6233Z" fill="black"/>
<path d="M109.356 80.6233H104.613V85.3659H109.356V80.6233Z" fill="black"/>
<path d="M123.584 80.6233H118.841V85.3659H123.584V80.6233Z" fill="black"/>
<path d="M128.326 80.6233H123.584V85.3659H128.326V80.6233Z" fill="black"/>
<path d="M137.811 80.6233H133.069V85.3659H137.811V80.6233Z" fill="black"/>
<path d="M147.296 80.6233H142.554V85.3659H147.296V80.6233Z" fill="black"/>
<path d="M156.781 80.6233H152.039V85.3659H156.781V80.6233Z" fill="black"/>
<path d="M175.752 80.6233H171.009V85.3659H175.752V80.6233Z" fill="black"/>
<path d="M180.494 80.6233H175.752V85.3659H180.494V80.6233Z" fill="black"/>
<path d="M194.722 80.6233H189.979V85.3659H194.722V80.6233Z" fill="black"/>
<path d="M9.76244 85.3659H5.01989V90.1084H9.76244V85.3659Z" fill="black"/>
<path d="M19.2475 85.3659H14.505V90.1084H19.2475L19.2475 85.3659Z" fill="black"/>
<path d="M33.4752 85.3659H28.7326V90.1084H33.4752V85.3659Z" fill="black"/>
<path d="M52.4454 85.3659H47.7028V90.1084H52.4454V85.3659Z" fill="black"/>
<path d="M66.673 85.3659H61.9305V90.1084H66.673V85.3659Z" fill="black"/>
<path d="M71.4156 85.3659H66.673V90.1084H71.4156V85.3659Z" fill="black"/>
<path d="M76.1581 85.3659H71.4156V90.1084H76.1581V85.3659Z" fill="black"/>
<path d="M85.6432 85.3659H80.9007V90.1084H85.6432V85.3659Z" fill="black"/>
<path d="M95.1283 85.3659H90.3857V90.1084H95.1283V85.3659Z" fill="black"/>
<path d="M104.613 85.3659H99.8708V90.1084H104.613V85.3659Z" fill="black"/>
<path d="M109.356 85.3659H104.613V90.1084H109.356V85.3659Z" fill="black"/>
<path d="M114.098 85.3659H109.356V90.1084H114.098V85.3659Z" fill="black"/>
<path d="M133.069 85.3659H128.326V90.1084H133.069V85.3659Z" fill="black"/>
<path d="M142.554 85.3659H137.811V90.1084H142.554V85.3659Z" fill="black"/>
<path d="M147.296 85.3659H142.554V90.1084H147.296V85.3659Z" fill="black"/>
<path d="M161.524 85.3659H156.781V90.1084H161.524V85.3659Z" fill="black"/>
<path d="M166.267 85.3659H161.524V90.1084H166.267V85.3659Z" fill="black"/>
<path d="M175.752 85.3659H171.009V90.1084H175.752V85.3659Z" fill="black"/>
<path d="M185.237 85.3659H180.494V90.1084H185.237V85.3659Z" fill="black"/>
<path d="M194.722 85.3659H189.979V90.1084H194.722V85.3659Z" fill="black"/>
<path d="M19.2475 90.1084H14.505V94.851H19.2475V90.1084Z" fill="black"/>
<path d="M23.9901 90.1084H19.2475V94.851H23.9901V90.1084Z" fill="black"/>
<path d="M47.7028 90.1084H42.9603V94.851H47.7028V90.1084Z" fill="black"/>
<path d="M61.9305 90.1084H57.1879V94.851H61.9305V90.1084Z" fill="black"/>
<path d="M71.4156 90.1084H66.673V94.851H71.4156V90.1084Z" fill="black"/>
<path d="M76.1581 90.1084H71.4156V94.851H76.1581V90.1084Z" fill="black"/>
<path d="M80.9007 90.1084H76.1581V94.851H80.9007V90.1084Z" fill="black"/>
<path d="M85.6432 90.1084H80.9007V94.851H85.6432V90.1084Z" fill="black"/>
<path d="M90.3857 90.1084H85.6432V94.851H90.3857V90.1084Z" fill="black"/>
<path d="M104.613 90.1084H99.8708V94.851H104.613V90.1084Z" fill="black"/>
<path d="M123.584 90.1084H118.841V94.851H123.584V90.1084Z" fill="black"/>
<path d="M133.069 90.1084H128.326V94.851H133.069V90.1084Z" fill="black"/>
<path d="M137.811 90.1084H133.069V94.851H137.811V90.1084Z" fill="black"/>
<path d="M147.296 90.1084H142.554V94.851H147.296V90.1084Z" fill="black"/>
<path d="M161.524 90.1084H156.781V94.851H161.524V90.1084Z" fill="black"/>
<path d="M171.009 90.1084H166.267V94.851H171.009V90.1084Z" fill="black"/>
<path d="M175.752 90.1084H171.009V94.851H175.752V90.1084Z" fill="black"/>
<path d="M180.494 90.1084H175.752V94.851H180.494V90.1084Z" fill="black"/>
<path d="M9.76244 94.851H5.01989V99.5935H9.76244V94.851Z" fill="black"/>
<path d="M14.505 94.851H9.76244V99.5935H14.505V94.851Z" fill="black"/>
<path d="M19.2475 94.851H14.505V99.5935H19.2475V94.851Z" fill="black"/>
<path d="M23.9901 94.851H19.2475V99.5935H23.9901V94.851Z" fill="black"/>
<path d="M33.4752 94.851H28.7326V99.5935H33.4752V94.851Z" fill="black"/>
<path d="M38.2177 94.851H33.4752V99.5935H38.2177V94.851Z" fill="black"/>
<path d="M61.9305 94.851H57.1879V99.5935H61.9305V94.851Z" fill="black"/>
<path d="M66.673 94.851H61.9305V99.5935H66.673V94.851Z" fill="black"/>
<path d="M85.6432 94.851H80.9007V99.5935H85.6432V94.851Z" fill="black"/>
<path d="M99.8708 94.851H95.1283V99.5935H99.8708V94.851Z" fill="black"/>
<path d="M109.356 94.851H104.613V99.5935H109.356V94.851Z" fill="black"/>
<path d="M123.584 94.851H118.841V99.5935H123.584V94.851Z" fill="black"/>
<path d="M128.326 94.851H123.584V99.5935H128.326V94.851Z" fill="black"/>
<path d="M137.811 94.851H133.069V99.5935H137.811V94.851Z" fill="black"/>
<path d="M166.267 94.851H161.524V99.5935H166.267V94.851Z" fill="black"/>
<path d="M175.752 94.851H171.009V99.5935H175.752V94.851Z" fill="black"/>
<path d="M180.494 94.851H175.752V99.5935H180.494V94.851Z" fill="black"/>
<path d="M185.237 94.851H180.494V99.5935H185.237V94.851Z" fill="black"/>
<path d="M189.979 94.851H185.237V99.5935H189.979V94.851Z" fill="black"/>
<path d="M9.76244 99.5935H5.01989V104.336H9.76244V99.5935Z" fill="black"/>
<path d="M28.7326 99.5935H23.9901V104.336H28.7326V99.5935Z" fill="black"/>
<path d="M47.7028 99.5935H42.9603V104.336H47.7028V99.5935Z" fill="black"/>
<path d="M52.4454 99.5935H47.7028V104.336H52.4454V99.5935Z" fill="black"/>
<path d="M66.673 99.5935H61.9305V104.336H66.673V99.5935Z" fill="black"/>
<path d="M71.4156 99.5935H66.673V104.336H71.4156V99.5935Z" fill="black"/>
<path d="M80.9007 99.5935H76.1581V104.336H80.9007V99.5935Z" fill="black"/>
<path d="M90.3857 99.5935H85.6432V104.336H90.3857V99.5935Z" fill="black"/>
<path d="M99.8708 99.5935H95.1283V104.336H99.8708V99.5935Z" fill="black"/>
<path d="M109.356 99.5935H104.613V104.336H109.356V99.5935Z" fill="black"/>
<path d="M142.554 99.5935H137.811V104.336H142.554V99.5935Z" fill="black"/>
<path d="M161.524 99.5935H156.781V104.336H161.524V99.5935Z" fill="black"/>
<path d="M171.009 99.5935H166.267V104.336H171.009V99.5935Z" fill="black"/>
<path d="M175.752 99.5935H171.009V104.336H175.752V99.5935Z" fill="black"/>
<path d="M185.237 99.5935H180.494V104.336H185.237V99.5935Z" fill="black"/>
<path d="M5.01989 104.336H0.277344V109.079H5.01989V104.336Z" fill="black"/>
<path d="M9.76244 104.336H5.01989V109.079H9.76244V104.336Z" fill="black"/>
<path d="M28.7326 104.336H23.9901V109.079H28.7326V104.336Z" fill="black"/>
<path d="M33.4752 104.336H28.7326V109.079H33.4752V104.336Z" fill="black"/>
<path d="M42.9603 104.336H38.2177V109.079H42.9603V104.336Z" fill="black"/>
<path d="M52.4454 104.336H47.7028V109.079H52.4454V104.336Z" fill="black"/>
<path d="M57.1879 104.336H52.4454V109.079H57.1879V104.336Z" fill="black"/>
<path d="M66.673 104.336H61.9305V109.079H66.673V104.336Z" fill="black"/>
<path d="M71.4156 104.336H66.673V109.079H71.4156V104.336Z" fill="black"/>
<path d="M80.9007 104.336H76.1581V109.079H80.9007V104.336Z" fill="black"/>
<path d="M85.6432 104.336H80.9007V109.079H85.6432V104.336Z" fill="black"/>
<path d="M90.3857 104.336H85.6432V109.079H90.3857V104.336Z" fill="black"/>
<path d="M95.1283 104.336H90.3857V109.079H95.1283V104.336Z" fill="black"/>
<path d="M109.356 104.336H104.613V109.079H109.356V104.336Z" fill="black"/>
<path d="M114.098 104.336H109.356V109.079H114.098V104.336Z" fill="black"/>
<path d="M133.069 104.336H128.326V109.079H133.069V104.336Z" fill="black"/>
<path d="M137.811 104.336H133.069V109.079H137.811V104.336Z" fill="black"/>
<path d="M152.039 104.336H147.296V109.079H152.039V104.336Z" fill="black"/>
<path d="M156.781 104.336H152.039V109.079H156.781V104.336Z" fill="black"/>
<path d="M161.524 104.336H156.781V109.079H161.524V104.336Z" fill="black"/>
<path d="M166.267 104.336H161.524V109.079H166.267V104.336Z" fill="black"/>
<path d="M23.9901 109.079H19.2475V113.821H23.9901V109.079Z" fill="black"/>
<path d="M47.7028 109.079H42.9603V113.821H47.7028V109.079Z" fill="black"/>
<path d="M85.6432 109.079H80.9007V113.821H85.6432V109.079Z" fill="black"/>
<path d="M90.3857 109.079H85.6432V113.821H90.3857V109.079Z" fill="black"/>
<path d="M104.613 109.079H99.8708V113.821H104.613V109.079Z" fill="black"/>
<path d="M123.584 109.079H118.841V113.821H123.584V109.079Z" fill="black"/>
<path d="M133.069 109.079H128.326V113.821H133.069V109.079Z" fill="black"/>
<path d="M137.811 109.079H133.069V113.821H137.811V109.079Z" fill="black"/>
<path d="M152.039 109.079H147.296V113.821H152.039V109.079Z" fill="black"/>
<path d="M156.781 109.079H152.039V113.821H156.781V109.079Z" fill="black"/>
<path d="M161.524 109.079H156.781V113.821H161.524V109.079Z" fill="black"/>
<path d="M171.009 109.079H166.267V113.821H171.009V109.079Z" fill="black"/>
<path d="M175.752 109.079H171.009V113.821H175.752V109.079Z" fill="black"/>
<path d="M180.494 109.079H175.752V113.821H180.494V109.079Z" fill="black"/>
<path d="M194.722 109.079H189.979V113.821H194.722V109.079Z" fill="black"/>
<path d="M9.76244 113.821H5.01989V118.564H9.76244V113.821Z" fill="black"/>
<path d="M19.2475 113.821H14.505V118.564H19.2475L19.2475 113.821Z" fill="black"/>
<path d="M23.9901 113.821H19.2475L19.2475 118.564H23.9901V113.821Z" fill="black"/>
<path d="M28.7326 113.821H23.9901V118.564H28.7326V113.821Z" fill="black"/>
<path d="M33.4752 113.821H28.7326V118.564H33.4752V113.821Z" fill="black"/>
<path d="M42.9603 113.821H38.2177V118.564H42.9603V113.821Z" fill="black"/>
<path d="M47.7028 113.821H42.9603V118.564H47.7028V113.821Z" fill="black"/>
<path d="M66.673 113.821H61.9305V118.564H66.673V113.821Z" fill="black"/>
<path d="M76.1581 113.821H71.4156V118.564H76.1581V113.821Z" fill="black"/>
<path d="M114.098 113.821H109.356V118.564H114.098V113.821Z" fill="black"/>
<path d="M118.841 113.821H114.098V118.564H118.841V113.821Z" fill="black"/>
<path d="M137.811 113.821H133.069V118.564H137.811V113.821Z" fill="black"/>
<path d="M147.296 113.821H142.554V118.564H147.296V113.821Z" fill="black"/>
<path d="M166.267 113.821H161.524V118.564H166.267V113.821Z" fill="black"/>
<path d="M175.752 113.821H171.009V118.564H175.752V113.821Z" fill="black"/>
<path d="M194.722 113.821H189.979V118.564H194.722V113.821Z" fill="black"/>
<path d="M5.01989 118.564H0.277344V123.306H5.01989V118.564Z" fill="black"/>
<path d="M28.7326 118.564H23.9901V123.306H28.7326V118.564Z" fill="black"/>
<path d="M42.9603 118.564H38.2177V123.306H42.9603V118.564Z" fill="black"/>
<path d="M52.4454 118.564H47.7028V123.306H52.4454V118.564Z" fill="black"/>
<path d="M66.673 118.564H61.9305V123.306H66.673V118.564Z" fill="black"/>
<path d="M71.4156 118.564H66.673V123.306H71.4156V118.564Z" fill="black"/>
<path d="M80.9007 118.564H76.1581V123.306H80.9007V118.564Z" fill="black"/>
<path d="M85.6432 118.564H80.9007V123.306H85.6432V118.564Z" fill="black"/>
<path d="M95.1283 118.564H90.3857V123.306H95.1283V118.564Z" fill="black"/>
<path d="M104.613 118.564H99.8708V123.306H104.613V118.564Z" fill="black"/>
<path d="M109.356 118.564H104.613V123.306H109.356V118.564Z" fill="black"/>
<path d="M137.811 118.564H133.069V123.306H137.811V118.564Z" fill="black"/>
<path d="M142.554 118.564H137.811V123.306H142.554V118.564Z" fill="black"/>
<path d="M156.781 118.564H152.039V123.306H156.781V118.564Z" fill="black"/>
<path d="M175.752 118.564H171.009V123.306H175.752V118.564Z" fill="black"/>
<path d="M185.237 118.564H180.494V123.306H185.237V118.564Z" fill="black"/>
<path d="M194.722 118.564H189.979V123.306H194.722V118.564Z" fill="black"/>
<path d="M5.01989 123.306H0.277344V128.049H5.01989V123.306Z" fill="black"/>
<path d="M14.505 123.306H9.76244V128.049H14.505V123.306Z" fill="black"/>
<path d="M19.2475 123.306H14.505V128.049H19.2475V123.306Z" fill="black"/>
<path d="M23.9901 123.306H19.2475V128.049H23.9901V123.306Z" fill="black"/>
<path d="M33.4752 123.306H28.7326V128.049H33.4752V123.306Z" fill="black"/>
<path d="M47.7028 123.306H42.9603V128.049H47.7028V123.306Z" fill="black"/>
<path d="M57.1879 123.306H52.4454V128.049H57.1879V123.306Z" fill="black"/>
<path d="M71.4156 123.306H66.673V128.049H71.4156V123.306Z" fill="black"/>
<path d="M76.1581 123.306H71.4156V128.049H76.1581V123.306Z" fill="black"/>
<path d="M80.9007 123.306H76.1581V128.049H80.9007V123.306Z" fill="black"/>
<path d="M99.8708 123.306H95.1283V128.049H99.8708V123.306Z" fill="black"/>
<path d="M104.613 123.306H99.8708V128.049H104.613V123.306Z" fill="black"/>
<path d="M109.356 123.306H104.613V128.049H109.356V123.306Z" fill="black"/>
<path d="M128.326 123.306H123.584V128.049H128.326V123.306Z" fill="black"/>
<path d="M142.554 123.306H137.811V128.049H142.554V123.306Z" fill="black"/>
<path d="M147.296 123.306H142.554V128.049H147.296V123.306Z" fill="black"/>
<path d="M152.039 123.306H147.296V128.049H152.039V123.306Z" fill="black"/>
<path d="M161.524 123.306H156.781V128.049H161.524V123.306Z" fill="black"/>
<path d="M171.009 123.306H166.267V128.049H171.009V123.306Z" fill="black"/>
<path d="M175.752 123.306H171.009V128.049H175.752V123.306Z" fill="black"/>
<path d="M180.494 123.306H175.752V128.049H180.494V123.306Z" fill="black"/>
<path d="M194.722 123.306H189.979V128.049H194.722V123.306Z" fill="black"/>
<path d="M14.505 128.049H9.76244V132.791H14.505V128.049Z" fill="black"/>
<path d="M19.2475 128.049H14.505V132.791H19.2475V128.049Z" fill="black"/>
<path d="M38.2177 128.049H33.4752V132.791H38.2177V128.049Z" fill="black"/>
<path d="M42.9603 128.049H38.2177V132.791H42.9603V128.049Z" fill="black"/>
<path d="M47.7028 128.049H42.9603V132.791H47.7028V128.049Z" fill="black"/>
<path d="M52.4454 128.049H47.7028V132.791H52.4454V128.049Z" fill="black"/>
<path d="M61.9305 128.049H57.1879V132.791H61.9305V128.049Z" fill="black"/>
<path d="M76.1581 128.049H71.4156V132.791H76.1581V128.049Z" fill="black"/>
<path d="M85.6432 128.049H80.9007V132.791H85.6432V128.049Z" fill="black"/>
<path d="M90.3857 128.049H85.6432V132.791H90.3857V128.049Z" fill="black"/>
<path d="M104.613 128.049H99.8708V132.791H104.613V128.049Z" fill="black"/>
<path d="M109.356 128.049H104.613V132.791H109.356V128.049Z" fill="black"/>
<path d="M118.841 128.049H114.098V132.791H118.841V128.049Z" fill="black"/>
<path d="M123.584 128.049H118.841V132.791H123.584V128.049Z" fill="black"/>
<path d="M128.326 128.049H123.584V132.791H128.326V128.049Z" fill="black"/>
<path d="M133.069 128.049H128.326V132.791H133.069V128.049Z" fill="black"/>
<path d="M137.811 128.049H133.069V132.791H137.811V128.049Z" fill="black"/>
<path d="M147.296 128.049H142.554V132.791H147.296V128.049Z" fill="black"/>
<path d="M152.039 128.049H147.296V132.791H152.039V128.049Z" fill="black"/>
<path d="M161.524 128.049H156.781V132.791H161.524V128.049Z" fill="black"/>
<path d="M166.267 128.049H161.524V132.791H166.267V128.049Z" fill="black"/>
<path d="M180.494 128.049H175.752V132.791H180.494V128.049Z" fill="black"/>
<path d="M185.237 128.049H180.494V132.791H185.237V128.049Z" fill="black"/>
<path d="M189.979 128.049H185.237V132.791H189.979V128.049Z" fill="black"/>
<path d="M9.76244 132.791H5.01989V137.534H9.76244V132.791Z" fill="black"/>
<path d="M19.2475 132.791H14.505V137.534H19.2475V132.791Z" fill="black"/>
<path d="M23.9901 132.791H19.2475V137.534H23.9901V132.791Z" fill="black"/>
<path d="M33.4752 132.791H28.7326V137.534H33.4752V132.791Z" fill="black"/>
<path d="M52.4454 132.791H47.7028V137.534H52.4454V132.791Z" fill="black"/>
<path d="M57.1879 132.791H52.4454V137.534H57.1879V132.791Z" fill="black"/>
<path d="M61.9305 132.791H57.1879V137.534H61.9305V132.791Z" fill="black"/>
<path d="M66.673 132.791H61.9305V137.534H66.673V132.791Z" fill="black"/>
<path d="M85.6432 132.791H80.9007V137.534H85.6432V132.791Z" fill="black"/>
<path d="M90.3857 132.791H85.6432V137.534H90.3857V132.791Z" fill="black"/>
<path d="M95.1283 132.791H90.3857V137.534H95.1283V132.791Z" fill="black"/>
<path d="M99.8708 132.791H95.1283V137.534H99.8708V132.791Z" fill="black"/>
<path d="M109.356 132.791H104.613V137.534H109.356V132.791Z" fill="black"/>
<path d="M114.098 132.791H109.356V137.534H114.098V132.791Z" fill="black"/>
<path d="M118.841 132.791H114.098V137.534H118.841V132.791Z" fill="black"/>
<path d="M123.584 132.791H118.841V137.534H123.584V132.791Z" fill="black"/>
<path d="M128.326 132.791H123.584V137.534H128.326V132.791Z" fill="black"/>
<path d="M152.039 132.791H147.296V137.534H152.039V132.791Z" fill="black"/>
<path d="M166.267 132.791H161.524V137.534H166.267V132.791Z" fill="black"/>
<path d="M171.009 132.791H166.267V137.534H171.009V132.791Z" fill="black"/>
<path d="M180.494 132.791H175.752V137.534H180.494V132.791Z" fill="black"/>
<path d="M185.237 132.791H180.494V137.534H185.237V132.791Z" fill="black"/>
<path d="M194.722 132.791H189.979V137.534H194.722V132.791Z" fill="black"/>
<path d="M9.76244 137.534H5.01989V142.276H9.76244V137.534Z" fill="black"/>
<path d="M19.2475 137.534H14.505V142.276H19.2475V137.534Z" fill="black"/>
<path d="M23.9901 137.534H19.2475V142.276H23.9901V137.534Z" fill="black"/>
<path d="M28.7326 137.534H23.9901V142.276H28.7326V137.534Z" fill="black"/>
<path d="M42.9603 137.534H38.2177V142.276H42.9603V137.534Z" fill="black"/>
<path d="M47.7028 137.534H42.9603V142.276H47.7028V137.534Z" fill="black"/>
<path d="M52.4454 137.534H47.7028V142.276H52.4454V137.534Z" fill="black"/>
<path d="M80.9007 137.534H76.1581V142.276H80.9007V137.534Z" fill="black"/>
<path d="M85.6432 137.534H80.9007V142.276H85.6432V137.534Z" fill="black"/>
<path d="M90.3857 137.534H85.6432V142.276H90.3857V137.534Z" fill="black"/>
<path d="M99.8708 137.534H95.1283V142.276H99.8708V137.534Z" fill="black"/>
<path d="M109.356 137.534H104.613V142.276H109.356V137.534Z" fill="black"/>
<path d="M128.326 137.534H123.584V142.276H128.326V137.534Z" fill="black"/>
<path d="M137.811 137.534H133.069V142.276H137.811V137.534Z" fill="black"/>
<path d="M142.554 137.534H137.811V142.276H142.554V137.534Z" fill="black"/>
<path d="M147.296 137.534H142.554V142.276H147.296V137.534Z" fill="black"/>
<path d="M156.781 137.534H152.039V142.276H156.781V137.534Z" fill="black"/>
<path d="M161.524 137.534H156.781V142.276H161.524V137.534Z" fill="black"/>
<path d="M180.494 137.534H175.752V142.276H180.494V137.534Z" fill="black"/>
<path d="M194.722 137.534H189.979V142.276H194.722V137.534Z" fill="black"/>
<path d="M23.9901 142.276H19.2475L19.2475 147.019H23.9901V142.276Z" fill="black"/>
<path d="M33.4752 142.276H28.7326V147.019H33.4752V142.276Z" fill="black"/>
<path d="M85.6432 142.276H80.9007V147.019H85.6432V142.276Z" fill="black"/>
<path d="M95.1283 142.276H90.3857V147.019H95.1283V142.276Z" fill="black"/>
<path d="M104.613 142.276H99.8708V147.019H104.613V142.276Z" fill="black"/>
<path d="M123.584 142.276H118.841V147.019H123.584V142.276Z" fill="black"/>
<path d="M128.326 142.276H123.584V147.019H128.326V142.276Z" fill="black"/>
<path d="M142.554 142.276H137.811V147.019H142.554V142.276Z" fill="black"/>
<path d="M156.781 142.276H152.039V147.019H156.781V142.276Z" fill="black"/>
<path d="M166.267 142.276H161.524V147.019H166.267V142.276Z" fill="black"/>
<path d="M180.494 142.276H175.752V147.019H180.494V142.276Z" fill="black"/>
<path d="M189.979 142.276H185.237V147.019H189.979V142.276Z" fill="black"/>
<path d="M19.2475 147.019H14.505V151.762H19.2475L19.2475 147.019Z" fill="black"/>
<path d="M42.9603 147.019H38.2177V151.762H42.9603V147.019Z" fill="black"/>
<path d="M47.7028 147.019H42.9603V151.762H47.7028V147.019Z" fill="black"/>
<path d="M57.1879 147.019H52.4454V151.762H57.1879V147.019Z" fill="black"/>
<path d="M66.673 147.019H61.9305V151.762H66.673V147.019Z" fill="black"/>
<path d="M76.1581 147.019H71.4156V151.762H76.1581V147.019Z" fill="black"/>
<path d="M85.6432 147.019H80.9007V151.762H85.6432V147.019Z" fill="black"/>
<path d="M90.3857 147.019H85.6432V151.762H90.3857V147.019Z" fill="black"/>
<path d="M104.613 147.019H99.8708V151.762H104.613V147.019Z" fill="black"/>
<path d="M118.841 147.019H114.098V151.762H118.841V147.019Z" fill="black"/>
<path d="M123.584 147.019H118.841V151.762H123.584V147.019Z" fill="black"/>
<path d="M133.069 147.019H128.326V151.762H133.069V147.019Z" fill="black"/>
<path d="M137.811 147.019H133.069V151.762H137.811V147.019Z" fill="black"/>
<path d="M142.554 147.019H137.811V151.762H142.554V147.019Z" fill="black"/>
<path d="M147.296 147.019H142.554V151.762H147.296V147.019Z" fill="black"/>
<path d="M166.267 147.019H161.524V151.762H166.267V147.019Z" fill="black"/>
<path d="M171.009 147.019H166.267V151.762H171.009V147.019Z" fill="black"/>
<path d="M175.752 147.019H171.009V151.762H175.752V147.019Z" fill="black"/>
<path d="M180.494 147.019H175.752V151.762H180.494V147.019Z" fill="black"/>
<path d="M185.237 147.019H180.494V151.762H185.237V147.019Z" fill="black"/>
<path d="M189.979 147.019H185.237V151.762H189.979V147.019Z" fill="black"/>
<path d="M194.722 147.019H189.979V151.762H194.722V147.019Z" fill="black"/>
<path d="M9.76244 151.762H5.01989V156.504H9.76244V151.762Z" fill="black"/>
<path d="M23.9901 151.762H19.2475L19.2475 156.504H23.9901V151.762Z" fill="black"/>
<path d="M28.7326 151.762H23.9901V156.504H28.7326V151.762Z" fill="black"/>
<path d="M33.4752 151.762H28.7326V156.504H33.4752V151.762Z" fill="black"/>
<path d="M38.2177 151.762H33.4752V156.504H38.2177V151.762Z" fill="black"/>
<path d="M52.4454 151.762H47.7028V156.504H52.4454V151.762Z" fill="black"/>
<path d="M57.1879 151.762H52.4454V156.504H57.1879V151.762Z" fill="black"/>
<path d="M61.9305 151.762H57.1879V156.504H61.9305V151.762Z" fill="black"/>
<path d="M66.673 151.762H61.9305V156.504H66.673V151.762Z" fill="black"/>
<path d="M85.6432 151.762H80.9007V156.504H85.6432V151.762Z" fill="black"/>
<path d="M90.3857 151.762H85.6432V156.504H90.3857V151.762Z" fill="black"/>
<path d="M95.1283 151.762H90.3857V156.504H95.1283V151.762Z" fill="black"/>
<path d="M114.098 151.762H109.356V156.504H114.098V151.762Z" fill="black"/>
<path d="M118.841 151.762H114.098V156.504H118.841V151.762Z" fill="black"/>
<path d="M128.326 151.762H123.584V156.504H128.326V151.762Z" fill="black"/>
<path d="M142.554 151.762H137.811V156.504H142.554V151.762Z" fill="black"/>
<path d="M147.296 151.762H142.554V156.504H147.296V151.762Z" fill="black"/>
<path d="M152.039 151.762H147.296V156.504H152.039V151.762Z" fill="black"/>
<path d="M156.781 151.762H152.039V156.504H156.781V151.762Z" fill="black"/>
<path d="M161.524 151.762H156.781V156.504H161.524V151.762Z" fill="black"/>
<path d="M166.267 151.762H161.524V156.504H166.267V151.762Z" fill="black"/>
<path d="M171.009 151.762H166.267V156.504H171.009V151.762Z" fill="black"/>
<path d="M175.752 151.762H171.009V156.504H175.752V151.762Z" fill="black"/>
<path d="M42.9603 156.504H38.2177V161.247H42.9603V156.504Z" fill="black"/>
<path d="M57.1879 156.504H52.4454V161.247H57.1879V156.504Z" fill="black"/>
<path d="M66.673 156.504H61.9305V161.247H66.673V156.504Z" fill="black"/>
<path d="M71.4156 156.504H66.673V161.247H71.4156V156.504Z" fill="black"/>
<path d="M76.1581 156.504H71.4156V161.247H76.1581V156.504Z" fill="black"/>
<path d="M80.9007 156.504H76.1581V161.247H80.9007V156.504Z" fill="black"/>
<path d="M85.6432 156.504H80.9007V161.247H85.6432V156.504Z" fill="black"/>
<path d="M95.1283 156.504H90.3857V161.247H95.1283V156.504Z" fill="black"/>
<path d="M104.613 156.504H99.8708V161.247H104.613V156.504Z" fill="black"/>
<path d="M114.098 156.504H109.356V161.247H114.098V156.504Z" fill="black"/>
<path d="M128.326 156.504H123.584V161.247H128.326V156.504Z" fill="black"/>
<path d="M142.554 156.504H137.811V161.247H142.554V156.504Z" fill="black"/>
<path d="M147.296 156.504H142.554V161.247H147.296V156.504Z" fill="black"/>
<path d="M156.781 156.504H152.039V161.247H156.781V156.504Z" fill="black"/>
<path d="M175.752 156.504H171.009V161.247H175.752V156.504Z" fill="black"/>
<path d="M185.237 156.504H180.494V161.247H185.237V156.504Z" fill="black"/>
<path d="M189.979 156.504H185.237V161.247H189.979V156.504Z" fill="black"/>
<path d="M5.01989 161.247H0.277344V165.989H5.01989V161.247Z" fill="black"/>
<path d="M9.76244 161.247H5.01989V165.989H9.76244V161.247Z" fill="black"/>
<path d="M14.505 161.247H9.76244V165.989H14.505V161.247Z" fill="black"/>
<path d="M19.2475 161.247H14.505V165.989H19.2475V161.247Z" fill="black"/>
<path d="M23.9901 161.247H19.2475V165.989H23.9901V161.247Z" fill="black"/>
<path d="M28.7326 161.247H23.9901V165.989H28.7326V161.247Z" fill="black"/>
<path d="M33.4752 161.247H28.7326V165.989H33.4752V161.247Z" fill="black"/>
<path d="M42.9603 161.247H38.2177V165.989H42.9603V161.247Z" fill="black"/>
<path d="M52.4454 161.247H47.7028V165.989H52.4454V161.247Z" fill="black"/>
<path d="M57.1879 161.247H52.4454V165.989H57.1879V161.247Z" fill="black"/>
<path d="M61.9305 161.247H57.1879V165.989H61.9305V161.247Z" fill="black"/>
<path d="M66.673 161.247H61.9305V165.989H66.673V161.247Z" fill="black"/>
<path d="M85.6432 161.247H80.9007V165.989H85.6432V161.247Z" fill="black"/>
<path d="M95.1283 161.247H90.3857V165.989H95.1283V161.247Z" fill="black"/>
<path d="M109.356 161.247H104.613V165.989H109.356V161.247Z" fill="black"/>
<path d="M118.841 161.247H114.098V165.989H118.841V161.247Z" fill="black"/>
<path d="M123.584 161.247H118.841V165.989H123.584V161.247Z" fill="black"/>
<path d="M142.554 161.247H137.811V165.989H142.554V161.247Z" fill="black"/>
<path d="M152.039 161.247H147.296V165.989H152.039V161.247Z" fill="black"/>
<path d="M156.781 161.247H152.039V165.989H156.781V161.247Z" fill="black"/>
<path d="M166.267 161.247H161.524V165.989H166.267V161.247Z" fill="black"/>
<path d="M175.752 161.247H171.009V165.989H175.752V161.247Z" fill="black"/>
<path d="M185.237 161.247H180.494V165.989H185.237V161.247Z" fill="black"/>
<path d="M189.979 161.247H185.237V165.989H189.979V161.247Z" fill="black"/>
<path d="M5.01989 165.989H0.277344V170.732H5.01989V165.989Z" fill="black"/>
<path d="M33.4752 165.989H28.7326V170.732H33.4752V165.989Z" fill="black"/>
<path d="M47.7028 165.989H42.9603V170.732H47.7028V165.989Z" fill="black"/>
<path d="M52.4454 165.989H47.7028V170.732H52.4454V165.989Z" fill="black"/>
<path d="M57.1879 165.989H52.4454V170.732H57.1879V165.989Z" fill="black"/>
<path d="M71.4156 165.989H66.673V170.732H71.4156V165.989Z" fill="black"/>
<path d="M76.1581 165.989H71.4156V170.732H76.1581V165.989Z" fill="black"/>
<path d="M80.9007 165.989H76.1581V170.732H80.9007V165.989Z" fill="black"/>
<path d="M85.6432 165.989H80.9007V170.732H85.6432V165.989Z" fill="black"/>
<path d="M90.3857 165.989H85.6432V170.732H90.3857V165.989Z" fill="black"/>
<path d="M104.613 165.989H99.8708V170.732H104.613V165.989Z" fill="black"/>
<path d="M123.584 165.989H118.841V170.732H123.584V165.989Z" fill="black"/>
<path d="M128.326 165.989H123.584V170.732H128.326V165.989Z" fill="black"/>
<path d="M133.069 165.989H128.326V170.732H133.069V165.989Z" fill="black"/>
<path d="M142.554 165.989H137.811V170.732H142.554V165.989Z" fill="black"/>
<path d="M156.781 165.989H152.039V170.732H156.781V165.989Z" fill="black"/>
<path d="M175.752 165.989H171.009V170.732H175.752V165.989Z" fill="black"/>
<path d="M180.494 165.989H175.752V170.732H180.494V165.989Z" fill="black"/>
<path d="M185.237 165.989H180.494V170.732H185.237V165.989Z" fill="black"/>
<path d="M194.722 165.989H189.979V170.732H194.722V165.989Z" fill="black"/>
<path d="M5.01989 170.732H0.277344V175.474H5.01989V170.732Z" fill="black"/>
<path d="M14.505 170.732H9.76244V175.474H14.505V170.732Z" fill="black"/>
<path d="M19.2475 170.732H14.505V175.474H19.2475V170.732Z" fill="black"/>
<path d="M23.9901 170.732H19.2475V175.474H23.9901V170.732Z" fill="black"/>
<path d="M33.4752 170.732H28.7326V175.474H33.4752V170.732Z" fill="black"/>
<path d="M47.7028 170.732H42.9603V175.474H47.7028V170.732Z" fill="black"/>
<path d="M66.673 170.732H61.9305V175.474H66.673V170.732Z" fill="black"/>
<path d="M85.6432 170.732H80.9007V175.474H85.6432V170.732Z" fill="black"/>
<path d="M90.3857 170.732H85.6432V175.474H90.3857V170.732Z" fill="black"/>
<path d="M95.1283 170.732H90.3857V175.474H95.1283V170.732Z" fill="black"/>
<path d="M104.613 170.732H99.8708V175.474H104.613V170.732Z" fill="black"/>
<path d="M109.356 170.732H104.613V175.474H109.356V170.732Z" fill="black"/>
<path d="M114.098 170.732H109.356V175.474H114.098V170.732Z" fill="black"/>
<path d="M118.841 170.732H114.098V175.474H118.841V170.732Z" fill="black"/>
<path d="M123.584 170.732H118.841V175.474H123.584V170.732Z" fill="black"/>
<path d="M128.326 170.732H123.584V175.474H128.326V170.732Z" fill="black"/>
<path d="M142.554 170.732H137.811V175.474H142.554V170.732Z" fill="black"/>
<path d="M147.296 170.732H142.554V175.474H147.296V170.732Z" fill="black"/>
<path d="M156.781 170.732H152.039V175.474H156.781V170.732Z" fill="black"/>
<path d="M161.524 170.732H156.781V175.474H161.524V170.732Z" fill="black"/>
<path d="M166.267 170.732H161.524V175.474H166.267V170.732Z" fill="black"/>
<path d="M171.009 170.732H166.267V175.474H171.009V170.732Z" fill="black"/>
<path d="M175.752 170.732H171.009V175.474H175.752V170.732Z" fill="black"/>
<path d="M185.237 170.732H180.494V175.474H185.237V170.732Z" fill="black"/>
<path d="M189.979 170.732H185.237V175.474H189.979V170.732Z" fill="black"/>
<path d="M194.722 170.732H189.979V175.474H194.722V170.732Z" fill="black"/>
<path d="M5.01989 175.474H0.277344V180.217H5.01989V175.474Z" fill="black"/>
<path d="M14.505 175.474H9.76244V180.217H14.505V175.474Z" fill="black"/>
<path d="M19.2475 175.474H14.505V180.217H19.2475V175.474Z" fill="black"/>
<path d="M23.9901 175.474H19.2475V180.217H23.9901V175.474Z" fill="black"/>
<path d="M33.4752 175.474H28.7326V180.217H33.4752V175.474Z" fill="black"/>
<path d="M42.9603 175.474H38.2177V180.217H42.9603V175.474Z" fill="black"/>
<path d="M57.1879 175.474H52.4454V180.217H57.1879V175.474Z" fill="black"/>
<path d="M66.673 175.474H61.9305V180.217H66.673V175.474Z" fill="black"/>
<path d="M71.4156 175.474H66.673V180.217H71.4156V175.474Z" fill="black"/>
<path d="M76.1581 175.474H71.4156V180.217H76.1581V175.474Z" fill="black"/>
<path d="M85.6432 175.474H80.9007V180.217H85.6432V175.474Z" fill="black"/>
<path d="M95.1283 175.474H90.3857V180.217H95.1283V175.474Z" fill="black"/>
<path d="M99.8708 175.474H95.1283V180.217H99.8708V175.474Z" fill="black"/>
<path d="M104.613 175.474H99.8708V180.217H104.613V175.474Z" fill="black"/>
<path d="M123.584 175.474H118.841V180.217H123.584V175.474Z" fill="black"/>
<path d="M133.069 175.474H128.326V180.217H133.069V175.474Z" fill="black"/>
<path d="M137.811 175.474H133.069V180.217H137.811V175.474Z" fill="black"/>
<path d="M142.554 175.474H137.811V180.217H142.554V175.474Z" fill="black"/>
<path d="M147.296 175.474H142.554V180.217H147.296V175.474Z" fill="black"/>
<path d="M152.039 175.474H147.296V180.217H152.039V175.474Z" fill="black"/>
<path d="M161.524 175.474H156.781V180.217H161.524V175.474Z" fill="black"/>
<path d="M171.009 175.474H166.267V180.217H171.009V175.474Z" fill="black"/>
<path d="M175.752 175.474H171.009V180.217H175.752V175.474Z" fill="black"/>
<path d="M180.494 175.474H175.752V180.217H180.494V175.474Z" fill="black"/>
<path d="M185.237 175.474H180.494V180.217H185.237V175.474Z" fill="black"/>
<path d="M189.979 175.474H185.237V180.217H189.979V175.474Z" fill="black"/>
<path d="M194.722 175.474H189.979V180.217H194.722V175.474Z" fill="black"/>
<path d="M5.01989 180.217H0.277344V184.959H5.01989V180.217Z" fill="black"/>
<path d="M14.505 180.217H9.76244V184.959H14.505V180.217Z" fill="black"/>
<path d="M19.2475 180.217H14.505V184.959H19.2475V180.217Z" fill="black"/>
<path d="M23.9901 180.217H19.2475V184.959H23.9901V180.217Z" fill="black"/>
<path d="M33.4752 180.217H28.7326V184.959H33.4752V180.217Z" fill="black"/>
<path d="M42.9603 180.217H38.2177V184.959H42.9603V180.217Z" fill="black"/>
<path d="M66.673 180.217H61.9305V184.959H66.673V180.217Z" fill="black"/>
<path d="M71.4156 180.217H66.673V184.959H71.4156V180.217Z" fill="black"/>
<path d="M76.1581 180.217H71.4156V184.959H76.1581V180.217Z" fill="black"/>
<path d="M80.9007 180.217H76.1581V184.959H80.9007V180.217Z" fill="black"/>
<path d="M90.3857 180.217H85.6432V184.959H90.3857V180.217Z" fill="black"/>
<path d="M99.8708 180.217H95.1283V184.959H99.8708V180.217Z" fill="black"/>
<path d="M109.356 180.217H104.613V184.959H109.356V180.217Z" fill="black"/>
<path d="M133.069 180.217H128.326V184.959H133.069V180.217Z" fill="black"/>
<path d="M137.811 180.217H133.069V184.959H137.811V180.217Z" fill="black"/>
<path d="M142.554 180.217H137.811V184.959H142.554V180.217Z" fill="black"/>
<path d="M147.296 180.217H142.554V184.959H147.296V180.217Z" fill="black"/>
<path d="M156.781 180.217H152.039V184.959H156.781V180.217Z" fill="black"/>
<path d="M161.524 180.217H156.781V184.959H161.524V180.217Z" fill="black"/>
<path d="M180.494 180.217H175.752V184.959H180.494V180.217Z" fill="black"/>
<path d="M189.979 180.217H185.237V184.959H189.979V180.217Z" fill="black"/>
<path d="M194.722 180.217H189.979V184.959H194.722V180.217Z" fill="black"/>
<path d="M5.01989 184.959H0.277344V189.702H5.01989V184.959Z" fill="black"/>
<path d="M33.4752 184.959H28.7326V189.702H33.4752V184.959Z" fill="black"/>
<path d="M42.9603 184.959H38.2177V189.702H42.9603V184.959Z" fill="black"/>
<path d="M57.1879 184.959H52.4454V189.702H57.1879V184.959Z" fill="black"/>
<path d="M66.673 184.959H61.9305V189.702H66.673V184.959Z" fill="black"/>
<path d="M133.069 184.959H128.326V189.702H133.069V184.959Z" fill="black"/>
<path d="M137.811 184.959H133.069V189.702H137.811V184.959Z" fill="black"/>
<path d="M147.296 184.959H142.554V189.702H147.296V184.959Z" fill="black"/>
<path d="M152.039 184.959H147.296V189.702H152.039V184.959Z" fill="black"/>
<path d="M180.494 184.959H175.752V189.702H180.494V184.959Z" fill="black"/>
<path d="M5.01989 189.702H0.277344V194.444H5.01989V189.702Z" fill="black"/>
<path d="M9.76244 189.702H5.01989V194.444H9.76244V189.702Z" fill="black"/>
<path d="M14.505 189.702H9.76244V194.444H14.505V189.702Z" fill="black"/>
<path d="M19.2475 189.702H14.505V194.444H19.2475V189.702Z" fill="black"/>
<path d="M23.9901 189.702H19.2475V194.444H23.9901V189.702Z" fill="black"/>
<path d="M28.7326 189.702H23.9901V194.444H28.7326V189.702Z" fill="black"/>
<path d="M33.4752 189.702H28.7326V194.444H33.4752V189.702Z" fill="black"/>
<path d="M57.1879 189.702H52.4454V194.444H57.1879V189.702Z" fill="black"/>
<path d="M61.9305 189.702H57.1879V194.444H61.9305V189.702Z" fill="black"/>
<path d="M66.673 189.702H61.9305V194.444H66.673V189.702Z" fill="black"/>
<path d="M85.6432 189.702H80.9007V194.444H85.6432V189.702Z" fill="black"/>
<path d="M90.3857 189.702H85.6432V194.444H90.3857V189.702Z" fill="black"/>
<path d="M95.1283 189.702H90.3857V194.444H95.1283V189.702Z" fill="black"/>
<path d="M123.584 189.702H118.841V194.444H123.584V189.702Z" fill="black"/>
<path d="M133.069 189.702H128.326V194.444H133.069V189.702Z" fill="black"/>
<path d="M137.811 189.702H133.069V194.444H137.811V189.702Z" fill="black"/>
<path d="M142.554 189.702H137.811V194.444H142.554V189.702Z" fill="black"/>
<path d="M147.296 189.702H142.554V194.444H147.296V189.702Z" fill="black"/>
<path d="M152.039 189.702H147.296V194.444H152.039V189.702Z" fill="black"/>
<path d="M175.752 189.702H171.009V194.444H175.752V189.702Z" fill="black"/>
<path d="M189.979 189.702H185.237V194.444H189.979V189.702Z" fill="black"/>
</svg>
