<svg width="200" height="200" viewBox="0 0 200 200" fill="none" xmlns="http://www.w3.org/2000/svg">
<path fill-rule="evenodd" clip-rule="evenodd" d="M122.8 26.0565C117.253 20.4208 109.854 17.1007 102.055 16.7082L100.494 16.6665C92.1275 16.6665 84.1052 20.046 78.1888 26.0565C72.2724 32.0673 68.9462 40.2173 68.9462 48.7178V59.4015H52.8024C49.4685 59.4015 46.1703 60.1327 43.1408 61.5466C40.1111 62.9612 37.4173 65.0275 35.2456 67.598C33.0741 70.169 31.4709 73.1882 30.5544 76.4455C29.6381 79.704 29.4312 83.1287 29.9383 86.4782L40.4954 156.156C41.6414 163.722 45.4163 170.619 51.1347 175.604C56.8535 180.588 64.1389 183.333 71.6738 183.333H129.323C136.856 183.333 144.144 180.594 149.862 175.612C155.582 170.628 159.364 163.724 160.51 156.156L171.067 86.4782C171.574 83.1292 171.359 79.7035 170.442 76.4455C169.526 73.1891 167.93 70.1685 165.76 67.598C163.588 65.0268 160.886 62.9617 157.856 61.5466C154.827 60.1332 151.528 59.4016 148.194 59.4015H132.042V48.7178C132.042 40.2175 128.716 32.0673 122.8 26.0565ZM87.111 35.121C90.6608 31.5148 95.4743 29.487 100.494 29.487L102.368 29.5788C106.7 30.0165 110.772 31.9661 113.878 35.121C117.427 38.7275 119.423 43.6177 119.423 48.7178V59.4015H81.5655V48.7178C81.5655 43.6175 83.5612 38.7275 87.111 35.121ZM48.4153 73.1986C49.7911 72.5572 51.2886 72.2221 52.8024 72.2221H68.9462H81.5655H119.423H132.042H148.194C149.71 72.2223 151.213 72.556 152.59 73.1986C153.966 73.8414 155.194 74.7774 156.18 75.9447C157.166 77.1124 157.891 78.4886 158.308 79.9678C158.724 81.447 158.825 83.0045 158.596 84.5251L148.038 154.203C147.351 158.744 145.078 162.889 141.647 165.88C138.215 168.869 133.843 170.513 129.323 170.513H71.6738C67.1543 170.512 62.781 168.869 59.3503 165.88C55.9189 162.889 53.6541 158.743 52.9667 154.203L42.4096 84.5251C42.18 83.004 42.2728 81.4475 42.689 79.9678C43.1056 78.4878 43.8384 77.1129 44.825 75.9447C45.8116 74.7781 47.0396 73.8409 48.4153 73.1986ZM132.042 99.5298C132.042 103.07 129.217 105.94 125.733 105.94C122.248 105.94 119.423 103.07 119.423 99.5298V81.8374H125.733H132.042V99.5298ZM81.5655 99.5298C81.5655 103.07 78.7402 105.94 75.2558 105.94C71.7711 105.94 68.9462 103.07 68.9462 99.5298V81.8374H81.5655V99.5298Z" fill="#0057B8"/>
<g clip-path="url(#clip0_38088_125540)">
<path d="M82.0279 132.47C79.2909 129.758 74.8699 129.774 72.1534 132.507L72.0265 132.635C69.31 135.368 69.3267 139.782 72.0638 142.494L88.3744 158.658C91.1115 161.37 95.5325 161.353 98.249 158.62L103.295 153.544L82.0279 132.47Z" fill="#FFD700"/>
<path d="M119.972 117.023C122.709 114.311 127.13 114.328 129.847 117.061L129.973 117.188C132.69 119.921 132.673 124.335 129.936 127.048L98.0377 158.658C95.3006 161.37 90.8796 161.353 88.1631 158.62L83.1176 153.545L119.972 117.023Z" fill="#0057B8"/>
</g>
<defs>
<clipPath id="clip0_38088_125540">
<rect width="62" height="46" fill="white" transform="translate(70 115)"/>
</clipPath>
</defs>
</svg>
