<svg width="24" height="24" viewBox="0 0 24 24" fill="none" xmlns="http://www.w3.org/2000/svg">
<path d="M11.2308 3.79487V2.76923C11.2308 2.56522 11.3118 2.36956 11.4561 2.2253C11.6003 2.08104 11.796 2 12 2C12.204 2 12.3997 2.08104 12.5439 2.2253C12.6882 2.36956 12.7692 2.56522 12.7692 2.76923V3.79487C12.7692 3.99888 12.6882 4.19454 12.5439 4.3388C12.3997 4.48306 12.204 4.5641 12 4.5641C11.796 4.5641 11.6003 4.48306 11.4561 4.3388C11.3118 4.19454 11.2308 3.99888 11.2308 3.79487ZM3.79487 11.2308H2.76923C2.56522 11.2308 2.36956 11.3118 2.2253 11.4561C2.08104 11.6003 2 11.796 2 12C2 12.204 2.08104 12.3997 2.2253 12.5439C2.36956 12.6882 2.56522 12.7692 2.76923 12.7692H3.79487C3.99888 12.7692 4.19454 12.6882 4.3388 12.5439C4.48306 12.3997 4.5641 12.204 4.5641 12C4.5641 11.796 4.48306 11.6003 4.3388 11.4561C4.19454 11.3118 3.99888 11.2308 3.79487 11.2308ZM6.69744 6.69744C6.84149 6.55321 6.9224 6.35769 6.9224 6.15385C6.9224 5.95 6.84149 5.75449 6.69744 5.61026L5.97949 4.89231C5.90906 4.81673 5.82414 4.75611 5.72978 4.71407C5.63542 4.67203 5.53356 4.64942 5.43028 4.6476C5.32699 4.64578 5.2244 4.66478 5.12862 4.70346C5.03284 4.74215 4.94583 4.79974 4.87278 4.87278C4.79974 4.94583 4.74215 5.03284 4.70346 5.12862C4.66478 5.2244 4.64578 5.32699 4.6476 5.43028C4.64942 5.53356 4.67203 5.63542 4.71407 5.72978C4.75611 5.82414 4.81673 5.90906 4.89231 5.97949L5.61026 6.69744C5.75449 6.84149 5.95 6.9224 6.15385 6.9224C6.35769 6.9224 6.55321 6.84149 6.69744 6.69744ZM17.9795 4.89231L17.2615 5.61026C17.1175 5.75449 17.0366 5.95 17.0366 6.15385C17.0366 6.35769 17.1175 6.55321 17.2615 6.69744C17.4058 6.84149 17.6013 6.9224 17.8051 6.9224C18.009 6.9224 18.2045 6.84149 18.3487 6.69744L19.0667 5.97949C19.2025 5.83367 19.2765 5.6408 19.273 5.44152C19.2695 5.24223 19.1888 5.05209 19.0478 4.91116C18.9069 4.77022 18.7167 4.68949 18.5175 4.68597C18.3182 4.68246 18.1253 4.75643 17.9795 4.89231ZM21.2308 11.2308H20.2051C20.0011 11.2308 19.8055 11.3118 19.6612 11.4561C19.5169 11.6003 19.4359 11.796 19.4359 12C19.4359 12.204 19.5169 12.3997 19.6612 12.5439C19.8055 12.6882 20.0011 12.7692 20.2051 12.7692H21.2308C21.4348 12.7692 21.6304 12.6882 21.7747 12.5439C21.919 12.3997 22 12.204 22 12C22 11.796 21.919 11.6003 21.7747 11.4561C21.6304 11.3118 21.4348 11.2308 21.2308 11.2308ZM17.6 10.1333C17.9806 11.3035 17.9876 12.5632 17.62 13.7375C17.2524 14.9119 16.5285 15.9428 15.5487 16.6872C15.2472 16.9905 15.0191 17.3589 14.8821 17.7641C14.7469 18.1843 14.7084 18.6295 14.7692 19.0667C14.7743 19.1041 14.7743 19.1421 14.7692 19.1795C14.7692 19.9275 14.4721 20.6449 13.9431 21.1739C13.4142 21.7028 12.6968 22 11.9487 22C11.2007 22 10.4833 21.7028 9.95431 21.1739C9.42537 20.6449 9.12821 19.9275 9.12821 19.1795C9.12314 19.1421 9.12314 19.1041 9.12821 19.0667C9.18837 18.6295 9.14982 18.1844 9.01539 17.7641C8.87834 17.3589 8.65028 16.9905 8.34872 16.6872C7.6302 16.1192 7.05384 15.3917 6.66532 14.5623C6.2768 13.7329 6.0868 12.8244 6.11038 11.9088C6.13396 10.9932 6.37047 10.0957 6.80116 9.28738C7.23186 8.47907 7.8449 7.78218 8.59171 7.25195C9.33851 6.72172 10.1985 6.37272 11.1037 6.2326C12.0088 6.09249 12.9341 6.16511 13.8063 6.44472C14.6784 6.72433 15.4735 7.20323 16.1284 7.84348C16.7834 8.48373 17.2802 9.26773 17.5795 10.1333H17.6ZM13.2821 19.2308C13.2322 18.7863 13.2495 18.3368 13.3333 17.8974H10.6667C10.7505 18.3368 10.7678 18.7863 10.7179 19.2308C10.728 19.5533 10.8642 19.859 11.0974 20.0821C11.3401 20.3152 11.6635 20.4454 12 20.4454C12.3365 20.4454 12.6599 20.3152 12.9026 20.0821C13.1358 19.859 13.272 19.5533 13.2821 19.2308ZM16.1026 10.6256C15.8871 9.98111 15.5236 9.39605 15.0412 8.91739C14.5587 8.43872 13.9708 8.07979 13.3246 7.86938C12.6784 7.65896 11.9919 7.60293 11.3202 7.70576C10.6484 7.8086 10.0101 8.06745 9.45641 8.46154C8.71409 8.99774 8.15852 9.75315 7.86784 10.6215C7.57716 11.4899 7.56599 12.4275 7.8359 13.3026C8.11075 14.1749 8.65244 14.939 9.38462 15.4872L9.46667 15.559C9.70927 15.7998 9.9227 16.0683 10.1026 16.359H13.8974C14.0773 16.0683 14.2907 15.7998 14.5333 15.559L14.6154 15.4872C15.3444 14.9373 15.8809 14.171 16.148 13.2978C16.4151 12.4246 16.3992 11.4893 16.1026 10.6256Z" fill="black"/>
</svg>
