<svg width="24" height="24" viewBox="0 0 24 24" fill="none" xmlns="http://www.w3.org/2000/svg">
<path d="M12.0881 21.9999C11.2343 21.9966 10.3842 21.8886 9.55665 21.6784C7.81141 21.2222 6.21995 20.3078 4.94718 19.0299C3.67442 17.752 2.76665 16.1572 2.31794 14.4105C1.86923 12.6639 1.89591 10.8292 2.39521 9.09633C2.89451 7.3635 3.84827 5.79566 5.15766 4.55529C6.46355 3.31163 8.0795 2.44125 9.83677 2.03504H9.91977C10.1421 1.98832 10.3718 1.98832 10.5941 2.03504C10.8139 2.09658 11.0187 2.20247 11.1959 2.34618C11.3728 2.48284 11.5179 2.65623 11.6213 2.85438C11.729 3.05432 11.7993 3.27223 11.8288 3.49741V10.8818C11.8315 11.2248 11.969 11.553 12.2116 11.7955C12.4542 12.0381 12.7825 12.1755 13.1256 12.1782H20.1806C20.4194 12.1769 20.6562 12.2229 20.8771 12.3136C21.098 12.4043 21.2987 12.538 21.4675 12.7068C21.6364 12.8756 21.7701 13.0762 21.8608 13.297C21.9516 13.5179 21.9976 13.7545 21.9962 13.9932C22.0013 14.0519 22.0013 14.1109 21.9962 14.1695C21.5868 15.9253 20.7162 17.5401 19.4742 18.8472C18.2322 20.1544 16.6638 21.1067 14.9309 21.6058C14.0067 21.8706 13.0496 22.0033 12.0881 21.9999ZM10.1584 3.55963C8.68495 3.916 7.33244 4.65671 6.23885 5.7062C5.14525 6.75568 4.34972 8.07638 3.93341 9.53355C3.53406 11.0074 3.53406 12.5609 3.93341 14.0347C4.30229 15.5139 5.06072 16.8673 6.12988 17.9544C7.19904 19.0414 8.53991 19.8223 10.0131 20.2161C11.1081 20.5002 12.2485 20.5643 13.3683 20.4046C14.4882 20.2449 15.5652 19.8646 16.537 19.2858C17.5088 18.707 18.356 17.9412 19.0295 17.0327C19.7031 16.1242 20.1895 15.0911 20.4607 13.9932C20.4485 13.948 20.4273 13.9057 20.3985 13.8688C20.3464 13.824 20.2805 13.7983 20.2118 13.7962H13.1256C12.7465 13.7935 12.3716 13.7158 12.0226 13.5676C11.6736 13.4194 11.3574 13.2037 11.0921 12.9328C10.8269 12.6619 10.618 12.3412 10.4773 11.9892C10.3366 11.6372 10.267 11.2608 10.2725 10.8818V3.62186H10.1688L10.1584 3.55963ZM20.9069 9.5854H16.2381C15.9993 9.58678 15.7626 9.54077 15.5417 9.45005C15.3208 9.35932 15.1201 9.22568 14.9512 9.05687C14.7824 8.88806 14.6487 8.68743 14.5579 8.4666C14.4672 8.24578 14.4211 8.00914 14.4225 7.77041V3.10329C14.4243 2.97941 14.4553 2.85769 14.513 2.74802C14.5707 2.63835 14.6534 2.54381 14.7544 2.47208C14.8555 2.40035 14.9721 2.35345 15.0947 2.33518C15.2172 2.31691 15.3424 2.32779 15.46 2.36693C16.9007 2.86621 18.2094 3.6856 19.2876 4.76345C20.3659 5.84129 21.1855 7.14953 21.685 8.58975C21.7241 8.70731 21.735 8.83244 21.7168 8.95498C21.6985 9.07753 21.6516 9.19404 21.5798 9.29507C21.508 9.39609 21.4135 9.47879 21.3038 9.53644C21.1941 9.59409 21.0723 9.62508 20.9484 9.62689L20.9069 9.5854ZM15.9788 4.28563V7.77041C15.9773 7.80485 15.983 7.83922 15.9955 7.87135C16.008 7.90347 16.0271 7.93264 16.0515 7.95702C16.0758 7.98139 16.105 8.00044 16.1372 8.01295C16.1693 8.02546 16.2037 8.03116 16.2381 8.0297H19.7241C18.9013 6.41847 17.5905 5.10814 15.9788 4.28563Z" fill="black"/>
</svg>
