<svg width="18" height="18" viewBox="0 0 18 18" fill="none" xmlns="http://www.w3.org/2000/svg">
<g clip-path="url(#clip0_9642_77219)">
<path d="M16.1547 4.90163C15.0706 3.00511 13.2765 1.6164 11.1671 1.04099C9.05774 0.465578 6.8059 0.750606 4.90695 1.83337C3.008 2.91613 1.61751 4.70793 1.04136 6.8146C0.465214 8.92127 0.750606 11.1702 1.83476 13.0667C1.83476 13.0667 1.83476 13.0667 1.83476 13.109C2.92452 15.0055 4.724 16.392 6.83734 16.9635C8.95067 17.5349 11.2047 17.2445 13.1037 16.1561C15.0026 15.0678 16.3909 13.2706 16.9631 11.16C17.5353 9.04933 17.2445 6.79814 16.1547 4.90163ZM8.99474 2.01087C10.112 2.01225 11.2126 2.2817 12.2038 2.79653C13.195 3.31137 14.0479 4.05652 14.6906 4.96925L2.66416 11.9003C2.23568 10.9877 2.01321 9.99216 2.01249 8.98419C2.01473 7.13543 2.75107 5.36304 4.06002 4.05578C5.36896 2.74851 7.14362 2.01311 8.99474 2.01087ZM8.99474 15.9575C7.87463 15.9588 6.77067 15.6907 5.77628 15.1757C4.78189 14.6608 3.92633 13.9142 3.28199 12.9991L15.3253 6.06807C15.7538 6.9807 15.9763 7.97621 15.977 8.98419C15.9748 10.8329 15.2384 12.6053 13.9295 13.9126C12.6205 15.2199 10.8459 15.9553 8.99474 15.9575Z" fill="#ADB5BD"/>
</g>
<defs>
<clipPath id="clip0_9642_77219">
<rect width="18" height="18" fill="white"/>
</clipPath>
</defs>
</svg>
