<svg width="40" height="40" viewBox="0 0 40 40" fill="none" xmlns="http://www.w3.org/2000/svg">
<g opacity="0.25">
<path d="M33.0164 9.71248C33.5815 15.6434 32.0254 20.7461 28.326 25.9865C24.5636 31.3162 20.2723 34.4657 14.5617 35.8548L8.82071 31.8021C12.9337 30.7127 18.4916 26.6728 22.0648 21.6111C25.6171 16.5791 27.584 9.95964 27.2755 5.65975L33.0164 9.71248Z" fill="black"/>
<path d="M16.74 4.5L11.74 6.14C12.9 8.62 15.14 14.46 15.9 16.98L20.94 15.22C20.14 12.66 17.7 6.5 16.74 4.5ZM5.58 6.98L0.5 8.78C1.62 10.9 4.26 17.5 5.1 20.06L10.22 18.18C9.3 15.5 6.82 9.54 5.58 6.98Z" fill="black"/>
</g>
</svg>
