<svg width="38" height="38" viewBox="0 0 38 38" fill="none" xmlns="http://www.w3.org/2000/svg">
<rect width="38" height="38" rx="6" fill="#55ACEE"/>
<path d="M26.8168 15.2383C26.8309 15.4027 26.8309 15.5662 26.8309 15.7297C26.8309 20.7338 22.4483 26.5 14.439 26.5C11.9715 26.5 9.67907 25.8788 7.75 24.8C8.10035 24.8348 8.43772 24.847 8.80212 24.847C10.7625 24.8511 12.6674 24.2814 14.2098 23.2297C13.3008 23.2154 12.4197 22.9548 11.6895 22.4843C10.9592 22.0137 10.4163 21.3567 10.1365 20.6051C10.4057 20.6398 10.676 20.6633 10.9593 20.6633C11.3497 20.6633 11.7422 20.6163 12.1066 20.5346C11.1202 20.3615 10.2332 19.8968 9.59647 19.2196C8.95974 18.5424 8.61256 17.6944 8.61397 16.8198V16.7728C9.19464 17.0538 9.8683 17.2295 10.582 17.253C9.98409 16.9078 9.49386 16.4393 9.155 15.8893C8.81613 15.3393 8.63918 14.725 8.63992 14.1012C8.63992 13.3983 8.8551 12.7536 9.23248 12.1916C10.3269 13.3616 11.6919 14.3188 13.2391 15.0011C14.7863 15.6835 16.4811 16.0758 18.2139 16.1526C18.1468 15.8707 18.1058 15.5784 18.1058 15.2852C18.1055 14.7881 18.2179 14.2958 18.4367 13.8364C18.6555 13.377 18.9763 12.9597 19.3808 12.6081C19.7853 12.2566 20.2656 11.9778 20.7942 11.7876C21.3227 11.5975 21.8892 11.4998 22.4613 11.5C23.7156 11.5 24.8477 11.9567 25.6436 12.6953C26.6187 12.5315 27.5538 12.2221 28.4074 11.781C28.0824 12.6557 27.4016 13.3974 26.4924 13.8672C27.3573 13.7815 28.2025 13.5838 29 13.2808C28.4043 14.0355 27.6662 14.6973 26.8168 15.2383Z" fill="white"/>
</svg>
