<svg width="55" height="22" viewBox="0 0 55 22" fill="none" xmlns="http://www.w3.org/2000/svg">
<path d="M10.4106 4.26758C9.07422 4.26758 7.99609 5.07617 7.2998 5.07617C6.56982 5.07617 5.59277 4.3125 4.43604 4.3125C2.23486 4.3125 0 6.14307 0 9.56836C0 11.7134 0.831055 13.9707 1.85303 15.4419C2.71777 16.666 3.49268 17.6768 4.59326 17.6768C5.68262 17.6768 6.16553 16.958 7.52441 16.958C8.89453 16.958 9.20898 17.6543 10.4106 17.6543C11.6123 17.6543 12.4097 16.5649 13.1621 15.4868C13.9932 14.2402 14.3525 13.0273 14.3638 12.9712C14.2964 12.9487 12.0054 12.0166 12.0054 9.38867C12.0054 7.12012 13.8022 6.10938 13.9033 6.03076C12.7241 4.3125 10.916 4.26758 10.4106 4.26758ZM9.79297 2.81885C10.332 2.15625 10.7139 1.25781 10.7139 0.348145C10.7139 0.224609 10.7026 0.101074 10.6802 0C9.8042 0.0336914 8.72607 0.583984 8.08594 1.33643C7.5918 1.90918 7.12012 2.81885 7.12012 3.72852C7.12012 3.86328 7.14258 4.00928 7.15381 4.0542C7.20996 4.06543 7.2998 4.07666 7.38965 4.07666C8.18701 4.07666 9.19775 3.5376 9.79297 2.81885Z" fill="black"/>
<path d="M18.7783 1.26904V17.4746H21.6757V12.1626H25.1909C28.4702 12.1626 30.7612 9.96143 30.7612 6.74951C30.7612 3.48145 28.5488 1.26904 25.3144 1.26904H18.7783ZM21.6757 3.69482H24.5507C26.6396 3.69482 27.8188 4.76172 27.8188 6.74951C27.8188 8.68115 26.6059 9.75928 24.5395 9.75928H21.6757V3.69482Z" fill="black"/>
<path d="M36.1977 15.4868C34.9623 15.4868 34.0751 14.8691 34.0751 13.8359C34.0751 12.8364 34.8051 12.2749 36.3661 12.1738L39.1401 11.9941V12.9712C39.1401 14.3975 37.8822 15.4868 36.1977 15.4868ZM35.3779 17.6768C36.9838 17.6768 38.3315 16.9805 39.0165 15.79H39.2074V17.4746H41.8915V9.08545C41.8915 6.47998 40.1171 4.94141 36.9613 4.94141C34.0414 4.94141 32.0087 6.32275 31.7841 8.49023H34.412C34.6703 7.65918 35.5463 7.20996 36.8266 7.20996C38.3315 7.20996 39.1401 7.88379 39.1401 9.08545V10.1187L35.9731 10.3096C32.9858 10.4893 31.3124 11.7695 31.3124 13.9932C31.3124 16.2393 33.0082 17.6768 35.3779 17.6768Z" fill="black"/>
<path d="M44.9921 21.9331C47.7435 21.9331 49.0575 20.9224 50.1019 17.8677L54.538 5.18848H51.5956L48.7318 14.7793H48.5409L45.6659 5.18848H42.6112L47.0023 17.5308L46.8563 18.0698C46.497 19.2041 45.8344 19.6533 44.6552 19.6533C44.4642 19.6533 44.0487 19.6421 43.8915 19.6084V21.8882C44.0712 21.9219 44.8236 21.9331 44.9921 21.9331Z" fill="black"/>
</svg>
