<svg width="55" height="23" viewBox="0 0 55 23" fill="none" xmlns="http://www.w3.org/2000/svg">
<path d="M10.4106 5.20117C9.07422 5.20117 7.99609 6.00977 7.2998 6.00977C6.56982 6.00977 5.59277 5.24609 4.43604 5.24609C2.23486 5.24609 0 7.07666 0 10.502C0 12.647 0.831055 14.9043 1.85303 16.3755C2.71777 17.5996 3.49268 18.6104 4.59326 18.6104C5.68262 18.6104 6.16553 17.8916 7.52441 17.8916C8.89453 17.8916 9.20898 18.5879 10.4106 18.5879C11.6123 18.5879 12.4097 17.4985 13.1621 16.4204C13.9932 15.1738 14.3525 13.9609 14.3638 13.9048C14.2964 13.8823 12.0054 12.9502 12.0054 10.3223C12.0054 8.05371 13.8022 7.04297 13.9033 6.96436C12.7241 5.24609 10.916 5.20117 10.4106 5.20117ZM9.79297 3.75244C10.332 3.08984 10.7139 2.19141 10.7139 1.28174C10.7139 1.1582 10.7026 1.03467 10.6802 0.933594C9.8042 0.967285 8.72607 1.51758 8.08594 2.27002C7.5918 2.84277 7.12012 3.75244 7.12012 4.66211C7.12012 4.79688 7.14258 4.94287 7.15381 4.98779C7.20996 4.99902 7.2998 5.01025 7.38965 5.01025C8.18701 5.01025 9.19775 4.47119 9.79297 3.75244Z" fill="white"/>
<path d="M18.7783 2.20264V18.4082H21.6757V13.0962H25.1909C28.4702 13.0962 30.7612 10.895 30.7612 7.68311C30.7612 4.41504 28.5488 2.20264 25.3144 2.20264H18.7783ZM21.6757 4.62842H24.5507C26.6396 4.62842 27.8188 5.69531 27.8188 7.68311C27.8188 9.61475 26.6059 10.6929 24.5395 10.6929H21.6757V4.62842Z" fill="white"/>
<path d="M36.1977 16.4204C34.9623 16.4204 34.0751 15.8027 34.0751 14.7695C34.0751 13.77 34.8051 13.2085 36.3661 13.1074L39.1401 12.9277V13.9048C39.1401 15.3311 37.8822 16.4204 36.1977 16.4204ZM35.3779 18.6104C36.9838 18.6104 38.3315 17.9141 39.0165 16.7236H39.2074V18.4082H41.8915V10.019C41.8915 7.41357 40.1171 5.875 36.9613 5.875C34.0414 5.875 32.0087 7.25635 31.7841 9.42383H34.412C34.6703 8.59277 35.5463 8.14355 36.8266 8.14355C38.3315 8.14355 39.1401 8.81738 39.1401 10.019V11.0522L35.9731 11.2432C32.9858 11.4229 31.3124 12.7031 31.3124 14.9268C31.3124 17.1729 33.0082 18.6104 35.3779 18.6104Z" fill="white"/>
<path d="M44.9921 22.8667C47.7435 22.8667 49.0575 21.856 50.1019 18.8013L54.538 6.12207H51.5956L48.7318 15.7129H48.5409L45.6659 6.12207H42.6112L47.0023 18.4644L46.8563 19.0034C46.497 20.1377 45.8344 20.5869 44.6552 20.5869C44.4642 20.5869 44.0487 20.5757 43.8915 20.542V22.8218C44.0712 22.8555 44.8236 22.8667 44.9921 22.8667Z" fill="white"/>
</svg>
