<svg width="18" height="18" viewBox="0 0 18 18" fill="none" xmlns="http://www.w3.org/2000/svg">
<path d="M11.7639 1.70464C11.6249 1.57341 11.4411 1.50021 11.2499 1.5H6.7499L6.66215 1.50525C6.47233 1.52783 6.29829 1.62204 6.1756 1.76863C6.05291 1.91522 5.99082 2.10312 6.00202 2.29395C6.01323 2.48479 6.09687 2.66414 6.23588 2.79536C6.37488 2.92659 6.55874 2.99979 6.7499 3H11.2499L11.3377 2.99475C11.5275 2.97217 11.7015 2.87796 11.8242 2.73137C11.9469 2.58478 12.009 2.39688 11.9978 2.20605C11.9866 2.01521 11.9029 1.83586 11.7639 1.70464Z" fill="#E53E34"/>
<path d="M6.66198 3.75525L6.74973 3.75H11.2497C11.4486 3.75 11.6394 3.82902 11.7801 3.96967C11.9207 4.11032 11.9997 4.30109 11.9997 4.5V8.24925L13.9392 8.25C14.2154 8.25006 14.4861 8.32636 14.7217 8.47047C14.9572 8.61458 15.1484 8.82092 15.2742 9.06675L15.3252 9.1755C15.4388 9.44966 15.4685 9.75135 15.4105 10.0424C15.3526 10.3334 15.2096 10.6007 14.9997 10.8105L10.0602 15.75C9.77894 16.0312 9.39747 16.1892 8.99973 16.1892C8.60198 16.1892 8.22052 16.0312 7.93923 15.75L2.99973 10.8105C2.79001 10.6007 2.6472 10.3335 2.58935 10.0425C2.5315 9.75162 2.56121 9.45007 2.67471 9.17602C2.78822 8.90197 2.98042 8.66772 3.22704 8.5029C3.47365 8.33807 3.7636 8.25006 4.06023 8.25L5.99973 8.24925V4.5C5.99975 4.3163 6.06719 4.139 6.18926 4.00172C6.31133 3.86444 6.47954 3.77674 6.66198 3.75525Z" fill="#E53E34"/>
</svg>
