<svg width="62" height="24" viewBox="0 0 62 24" fill="none" xmlns="http://www.w3.org/2000/svg">
<path d="M28.743 11.6721V18.7481H26.4822V1.27441H32.4757C33.9947 1.27441 35.2899 1.77734 36.3497 2.78319C37.433 3.78903 37.9746 5.0171 37.9746 6.46739C37.9746 7.95277 37.433 9.18084 36.3497 10.175C35.3017 11.1691 34.0064 11.6604 32.4757 11.6604H28.743V11.6721ZM28.743 3.42646V9.52002H32.5228C33.4177 9.52002 34.1713 9.21593 34.7601 8.61944C35.3606 8.02295 35.6667 7.2978 35.6667 6.47909C35.6667 5.67207 35.3606 4.95862 34.7601 4.36213C34.1713 3.74225 33.4295 3.43815 32.5228 3.43815H28.743V3.42646Z" fill="#5F6368"/>
<path d="M43.8857 6.39746C45.5578 6.39746 46.8766 6.8419 47.8422 7.73079C48.8077 8.61968 49.2905 9.83606 49.2905 11.3799V18.7483H47.1356V17.0875H47.0415C46.1112 18.4559 44.8631 19.1343 43.3087 19.1343C41.9782 19.1343 40.8713 18.7483 39.9764 17.9647C39.0815 17.1811 38.634 16.2103 38.634 15.0407C38.634 13.801 39.105 12.8185 40.047 12.0934C40.9891 11.3565 42.249 10.9939 43.8151 10.9939C45.1574 10.9939 46.2643 11.2396 47.1239 11.7308V11.2162C47.1239 10.4325 46.8177 9.77757 46.1936 9.22787C45.5696 8.67816 44.8395 8.40915 44.0035 8.40915C42.7435 8.40915 41.7427 8.93547 41.0126 9.9998L39.0226 8.76003C40.1177 7.18108 41.7427 6.39746 43.8857 6.39746ZM40.9655 15.0758C40.9655 15.6606 41.2128 16.1518 41.7191 16.5378C42.2137 16.9238 42.8024 17.1226 43.4736 17.1226C44.4274 17.1226 45.2752 16.7717 46.017 16.07C46.7588 15.3682 47.1356 14.5495 47.1356 13.6021C46.4291 13.0524 45.4518 12.7717 44.1919 12.7717C43.2734 12.7717 42.508 12.9939 41.8957 13.4267C41.2717 13.8828 40.9655 14.4325 40.9655 15.0758Z" fill="#5F6368"/>
<path d="M61.5837 6.7832L54.0476 23.9996H51.7162L54.5186 17.9762L49.5496 6.7832H52.0106L55.5902 15.368H55.6373L59.1227 6.7832H61.5837Z" fill="#5F6368"/>
<path d="M19.7504 10.2451C19.7504 9.51294 19.6845 8.81236 19.562 8.13867H10.0854V11.9983L15.5432 11.9995C15.3218 13.2837 14.6094 14.3784 13.5179 15.1083V17.6123H16.7666C18.6636 15.8685 19.7504 13.2907 19.7504 10.2451Z" fill="#4285F4"/>
<path d="M13.519 15.109C12.6147 15.7149 11.4501 16.0693 10.0877 16.0693C7.45602 16.0693 5.22347 14.3079 4.42394 11.9336H1.07275V14.5161C2.73304 17.7886 6.14545 20.0342 10.0877 20.0342C12.8125 20.0342 15.1016 19.1441 16.7677 17.612L13.519 15.109Z" fill="#34A853"/>
<path d="M4.10832 10.018C4.10832 9.3513 4.22018 8.70686 4.42389 8.10101V5.51855H1.07271C0.386221 6.87177 0 8.39925 0 10.018C0 11.6367 0.387398 13.1642 1.07271 14.5174L4.42389 11.9349C4.22018 11.3291 4.10832 10.6846 4.10832 10.018Z" fill="#FABB05"/>
<path d="M10.0877 3.96491C11.5749 3.96491 12.9067 4.47368 13.9582 5.46783L16.8372 2.61052C15.0886 0.992982 12.809 0 10.0877 0C6.14663 0 2.73304 2.24561 1.07275 5.51812L4.42394 8.10058C5.22347 5.72631 7.45602 3.96491 10.0877 3.96491Z" fill="#E94235"/>
</svg>
