<svg width="38" height="38" viewBox="0 0 38 38" fill="none" xmlns="http://www.w3.org/2000/svg">
<rect width="38" height="38" rx="8" fill="url(#paint0_linear_9299_70484)"/>
<path fill-rule="evenodd" clip-rule="evenodd" d="M19 13.2175C17.8568 13.2197 16.7399 13.5608 15.7905 14.1975C14.841 14.8342 14.1016 15.7381 13.6657 16.7949C13.2298 17.8517 13.1168 19.014 13.3412 20.135C13.5656 21.2559 14.1172 22.2852 14.9264 23.0928C15.7355 23.9004 16.7659 24.45 17.8873 24.6722C19.0087 24.8944 20.1708 24.7792 21.2267 24.3413C22.2827 23.9033 23.1851 23.1621 23.82 22.2114C24.4549 21.2607 24.7937 20.1432 24.7938 19C24.7938 18.2397 24.6438 17.4868 24.3525 16.7845C24.0612 16.0822 23.6343 15.4443 23.0961 14.9072C22.558 14.3701 21.9192 13.9444 21.2163 13.6544C20.5135 13.3645 19.7603 13.216 19 13.2175ZM19 22.7463C18.2595 22.744 17.5364 22.5224 16.9218 22.1094C16.3072 21.6964 15.8288 21.1106 15.5469 20.4259C15.2651 19.7411 15.1925 18.9882 15.3384 18.2623C15.4842 17.5363 15.8419 16.8698 16.3662 16.3471C16.8906 15.8243 17.5581 15.4686 18.2845 15.3249C19.0109 15.1813 19.7636 15.2561 20.4475 15.54C21.1313 15.8239 21.7158 16.304 22.1269 16.9199C22.5381 17.5357 22.7575 18.2595 22.7575 19C22.7575 19.4929 22.6602 19.981 22.4713 20.4362C22.2823 20.8915 22.0053 21.305 21.6563 21.653C21.3072 22.001 20.8929 22.2767 20.4371 22.4643C19.9813 22.6519 19.4929 22.7477 19 22.7463ZM25.0075 14.3425C25.2745 14.3425 25.5355 14.2633 25.7575 14.115C25.9795 13.9666 26.1526 13.7558 26.2547 13.5091C26.3569 13.2624 26.3837 12.991 26.3316 12.7291C26.2795 12.4673 26.1509 12.2267 25.9621 12.0379C25.7733 11.8491 25.5327 11.7205 25.2709 11.6684C25.009 11.6164 24.7376 11.6431 24.4909 11.7453C24.2442 11.8474 24.0334 12.0205 23.885 12.2425C23.7367 12.4645 23.6575 12.7255 23.6575 12.9925C23.6575 13.1707 23.6928 13.3472 23.7613 13.5117C23.8299 13.6763 23.9303 13.8256 24.0569 13.9511C24.1834 14.0766 24.3336 14.1758 24.4987 14.243C24.6638 14.3102 24.8405 14.344 25.0188 14.3425H25.0075ZM19 7.75C15.9513 7.75 15.625 7.75 14.365 7.8175C13.4352 7.83918 12.5154 8.01403 11.6425 8.335C10.8874 8.61798 10.2038 9.0635 9.64 9.64C9.06373 10.1996 8.61812 10.8795 8.335 11.6313C8.0142 12.5081 7.83938 13.4316 7.8175 14.365C7.75 15.625 7.75 15.9513 7.75 19C7.75 22.0488 7.75 22.4425 7.8175 23.635C7.83815 24.5685 8.01301 25.4923 8.335 26.3688C8.61812 27.1205 9.06373 27.8004 9.64 28.36C10.2017 28.9337 10.881 29.379 11.6313 29.665C12.5084 29.9846 13.4317 30.1594 14.365 30.1825C15.625 30.25 15.9513 30.25 19 30.25C22.0488 30.25 22.4425 30.25 23.6463 30.1825C24.576 30.1608 25.4959 29.986 26.3688 29.665C27.1151 29.3714 27.793 28.9272 28.3601 28.3601C28.9272 27.793 29.3714 27.1151 29.665 26.3688C29.986 25.4959 30.1608 24.576 30.1825 23.6463C30.1825 22.4425 30.25 22.06 30.25 19.0113C30.25 15.9625 30.25 15.625 30.1825 14.365C30.1608 13.4352 29.986 12.5154 29.665 11.6425C29.3933 10.8845 28.9506 10.1993 28.3713 9.64C27.8112 9.06693 27.1312 8.62508 26.38 8.34625C25.5055 8.01568 24.581 7.83686 23.6463 7.8175C22.4425 7.75 22.06 7.75 19 7.75ZM19 9.775C22.0038 9.775 22.375 9.775 23.5 9.8425C24.2104 9.85153 24.9141 9.98086 25.5813 10.225C26.0977 10.4108 26.5611 10.7197 26.9313 11.125C27.2999 11.4706 27.588 11.8931 27.775 12.3625C28.0313 13.0459 28.1609 13.7702 28.1575 14.5C28.2138 15.6925 28.225 16.0525 28.225 19C28.225 21.9475 28.225 22.375 28.1575 23.5C28.1552 24.2147 28.0257 24.9232 27.775 25.5925C27.5912 26.0767 27.3031 26.5145 26.9313 26.875C26.5698 27.2484 26.1271 27.5333 25.6375 27.7075C24.973 27.9626 24.268 28.096 23.5563 28.1013C22.3638 28.1575 22.015 28.1688 19.0563 28.1688C16.0975 28.1688 15.6813 28.1688 14.5563 28.1013C13.8445 28.096 13.1395 27.9626 12.475 27.7075C11.9653 27.5412 11.5025 27.2558 11.125 26.875C10.7518 26.5113 10.4636 26.0695 10.2813 25.5813C10.0222 24.9166 9.87761 24.2129 9.85375 23.5C9.7975 22.375 9.78625 21.9588 9.78625 19C9.78625 16.0413 9.78625 15.625 9.85375 14.5C9.85634 13.7707 9.98577 13.0474 10.2363 12.3625C10.4364 11.8888 10.74 11.4659 11.125 11.125C11.468 10.7346 11.8949 10.4269 12.3738 10.225C13.0551 9.9758 13.7745 9.8464 14.5 9.8425C15.625 9.78625 15.9963 9.775 19 9.775Z" fill="white"/>
<defs>
<linearGradient id="paint0_linear_9299_70484" x1="32.4378" y1="5.56224" x2="5.56224" y2="32.4378" gradientUnits="userSpaceOnUse">
<stop stop-color="#FBE18A"/>
<stop offset="0.21" stop-color="#FCBB45"/>
<stop offset="0.38" stop-color="#F75274"/>
<stop offset="0.52" stop-color="#D53692"/>
<stop offset="0.74" stop-color="#8F39CE"/>
<stop offset="1" stop-color="#5B4FE9"/>
</linearGradient>
</defs>
</svg>
