<svg width="38" height="38" viewBox="0 0 38 38" fill="none" xmlns="http://www.w3.org/2000/svg">
<rect width="38" height="38" rx="19" fill="#CED4DA"/>
<path d="M23.0515 14.9855C23.2126 15.1462 23.3031 15.3641 23.3031 15.5913C23.3031 15.8184 23.2126 16.0363 23.0515 16.197L16.1701 23.0551C16.0088 23.2156 15.7902 23.3058 15.5622 23.3058C15.3343 23.3058 15.1157 23.2156 14.9544 23.0551C14.7933 22.8943 14.7028 22.6765 14.7028 22.4493C14.7028 22.2221 14.7933 22.0042 14.9544 21.8435L21.8358 14.9855C21.9971 14.8249 22.2157 14.7348 22.4437 14.7348C22.6716 14.7348 22.8902 14.8249 23.0515 14.9855ZM27.1001 10.9392C26.4871 10.3241 25.7581 9.83587 24.955 9.50272C24.1519 9.16956 23.2906 8.99805 22.4207 8.99805C21.5508 8.99805 20.6895 9.16956 19.8864 9.50272C19.0833 9.83587 18.3543 10.3241 17.7414 10.9392L17.2023 11.5564C17.127 11.642 17.0693 11.7415 17.0326 11.8493C16.9959 11.957 16.9809 12.071 16.9883 12.1845C16.9958 12.2981 17.0256 12.4091 17.0761 12.5112C17.1266 12.6132 17.1967 12.7044 17.2826 12.7795C17.3684 12.8545 17.4683 12.912 17.5764 12.9486C17.6846 12.9852 17.7989 13.0002 17.9128 12.9927C18.0268 12.9853 18.1381 12.9556 18.2406 12.9053C18.343 12.8549 18.4345 12.785 18.5098 12.6995L18.9915 12.1279C19.4435 11.6781 19.98 11.3213 20.5704 11.0781C21.1607 10.835 21.7934 10.7101 22.4322 10.7106C23.3875 10.7196 24.3191 11.008 25.1113 11.5403C25.9034 12.0725 26.5212 12.825 26.8878 13.7042C27.2543 14.5834 27.3536 15.5506 27.1731 16.4856C26.9927 17.4206 26.5406 18.2821 25.8729 18.9631L25.265 19.4889C25.0917 19.6405 24.9858 19.8545 24.9707 20.0838C24.9557 20.3132 25.0327 20.5391 25.1848 20.7119C25.3369 20.8847 25.5516 20.9902 25.7817 21.0052C26.0119 21.0202 26.2386 20.9435 26.4119 20.7919L27.0657 20.2204C27.6795 19.6099 28.1664 18.8848 28.4987 18.0866C28.8309 17.2883 29.002 16.4326 29.002 15.5684C29.002 14.7042 28.8309 13.8484 28.4987 13.0502C28.1664 12.2519 27.6795 11.5268 27.0657 10.9164L27.1001 10.9392ZM19.4617 25.3639L19.003 25.8783C18.0793 26.7667 16.8458 27.2631 15.5622 27.2631C14.2786 27.2631 13.0451 26.7667 12.1215 25.8783C11.6665 25.4334 11.3074 24.9005 11.0664 24.3124C10.8165 23.7228 10.6878 23.0893 10.6878 22.4493C10.6878 21.8093 10.8165 21.1758 11.0664 20.5862C11.3071 19.9979 11.6662 19.465 12.1215 19.0203L12.7294 18.4945C12.8137 18.4194 12.8824 18.3286 12.9315 18.2271C12.9806 18.1256 13.0092 18.0154 13.0156 17.9029C13.022 17.7904 13.0061 17.6777 12.9688 17.5713C12.9315 17.465 12.8735 17.367 12.7982 17.2829C12.7229 17.1989 12.6317 17.1304 12.5298 17.0815C12.428 17.0325 12.3175 17.0041 12.2046 16.9977C12.0917 16.9913 11.9786 17.0072 11.8719 17.0443C11.7652 17.0815 11.6668 17.1393 11.5825 17.2143L10.9517 17.7744C10.3313 18.3789 9.83981 19.102 9.50659 19.9004C9.17458 20.7015 9.00314 21.5597 9.00195 22.4264C9.00182 23.2919 9.17411 24.1487 9.5088 24.9473C9.84349 25.7458 10.3339 26.4702 10.9517 27.0784C12.2011 28.3083 13.8864 28.998 15.6425 28.998C17.3986 28.998 19.084 28.3083 20.3334 27.0784L20.4251 26.9756L20.8724 26.3698C21.0093 26.1879 21.0681 25.9593 21.0358 25.7342C21.0035 25.5091 20.8829 25.3061 20.7004 25.1696C20.5179 25.0332 20.2884 24.9747 20.0626 25.0068C19.8368 25.039 19.633 25.1592 19.4961 25.3411L19.4617 25.3639Z" fill="white"/>
</svg>
