<svg width="39" height="39" viewBox="0 0 39 39" fill="none" xmlns="http://www.w3.org/2000/svg">
<path d="M38.6966 22.9455C38.896 21.8271 39 20.6757 39 19.5C39 18.3243 38.8959 17.1729 38.6966 16.0545L29.8366 17.6447C29.944 18.2469 30 18.8669 30 19.5C30 20.1331 29.944 20.7531 29.8366 21.3553L38.6966 22.9455Z" fill="#FFE000"/>
<path d="M35.509 30.6368L28.1203 25.4967C27.408 26.5187 26.5187 27.408 25.4967 28.1203L30.6367 35.5091C32.5346 34.1863 34.1863 32.5347 35.509 30.6368Z" fill="#FFE000"/>
<path d="M22.9455 38.6966L21.3553 29.8366C20.7531 29.944 20.1331 30 19.5 30C18.8669 30 18.2469 29.944 17.6447 29.8366L16.0545 38.6966C17.1729 38.8959 18.3243 39 19.5 39C20.6757 39 21.8271 38.8959 22.9455 38.6966Z" fill="#FFE000"/>
<path d="M8.36327 35.5091L13.5033 28.1203C12.4813 27.408 11.592 26.5187 10.8797 25.4967L3.49095 30.6368C4.81372 32.5347 6.46535 34.1863 8.36327 35.5091Z" fill="#FFE000"/>
<path d="M0.303448 22.9455L9.16339 21.3553C9.05603 20.7531 9 20.1331 9 19.5C9 18.8669 9.05603 18.2469 9.16339 17.6447L0.303446 16.0545C0.104051 17.1729 0 18.3243 0 19.5C0 20.6757 0.104051 21.8271 0.303448 22.9455Z" fill="#FFE000"/>
<path d="M3.49093 8.36327L10.8797 13.5033C11.592 12.4813 12.4813 11.592 13.5033 10.8797L8.36325 3.49095C7.42022 4.1482 6.53799 4.88665 5.72669 5.69616C5.7165 5.70633 5.70633 5.71651 5.69616 5.72669C4.88664 6.53799 4.14819 7.42023 3.49093 8.36327Z" fill="#FFE000"/>
<path d="M16.0545 0.303447L17.6447 9.16339C18.2469 9.05603 18.8669 9 19.5 9C20.1331 9 20.7531 9.05603 21.3553 9.16339L22.9455 0.303447C21.8271 0.104051 20.6757 0 19.5 0C18.3243 0 17.1729 0.104051 16.0545 0.303447Z" fill="#FFE000"/>
<path d="M30.6367 3.49094L25.4967 10.8797C26.5187 11.592 27.408 12.4813 28.1203 13.5033L35.5091 8.36327C34.852 7.42048 34.1138 6.53846 33.3045 5.72734C33.2939 5.71672 33.2833 5.70611 33.2727 5.69552C32.4615 4.88626 31.5795 4.14803 30.6367 3.49094Z" fill="#FFE000"/>
</svg>
