<svg width="39" height="39" viewBox="0 0 39 39" fill="none" xmlns="http://www.w3.org/2000/svg">
<path d="M32.5164 9.21248C33.0815 15.1434 31.5254 20.2461 27.826 25.4865C24.0636 30.8162 19.7723 33.9657 14.0617 35.3548L8.32071 31.3021C12.4337 30.2127 17.9916 26.1728 21.5648 21.1111C25.1171 16.0791 27.084 9.45964 26.7755 5.15975L32.5164 9.21248Z" fill="#FFE000"/>
<path d="M16.24 4L11.24 5.64C12.4 8.12 14.64 13.96 15.4 16.48L20.44 14.72C19.64 12.16 17.2 6 16.24 4ZM5.08 6.48L0 8.28C1.12 10.4 3.76 17 4.6 19.56L9.72 17.68C8.8 15 6.32 9.04 5.08 6.48Z" fill="#FFE000"/>
</svg>
