<svg width="61" height="60" viewBox="0 0 61 60" fill="none" xmlns="http://www.w3.org/2000/svg">
<path d="M37.4391 20.4126L30.8726 26.9791L24.3061 20.4126L16.6911 28.0276L30.8726 42.2091L45.0541 28.0276L37.4391 20.4126Z" fill="#FFE000"/>
<path fill-rule="evenodd" clip-rule="evenodd" d="M0.5 30C0.5 13.4315 13.9315 0 30.5 0C47.0685 0 60.5 13.4315 60.5 30C60.5 46.5685 47.0685 60 30.5 60C13.9315 60 0.5 46.5685 0.5 30ZM30.5 49.2308C19.8791 49.2308 11.2692 40.6209 11.2692 30C11.2692 19.3791 19.8791 10.7692 30.5 10.7692C41.1209 10.7692 49.7308 19.3791 49.7308 30C49.7308 40.6209 41.1209 49.2308 30.5 49.2308Z" fill="#FFE000"/>
</svg>
