<svg width="39" height="39" viewBox="0 0 39 39" fill="none" xmlns="http://www.w3.org/2000/svg">
<path d="M16.2422 21.5V10H23.2422V21.5H16.2422Z" fill="#FFE000"/>
<path d="M16.2422 24V28.5H23.2422V24H16.2422Z" fill="#FFE000"/>
<path fill-rule="evenodd" clip-rule="evenodd" d="M19.5 0C8.73045 0 0 8.73045 0 19.5C0 30.2696 8.73045 39 19.5 39C30.2696 39 39 30.2696 39 19.5C39 8.73045 30.2696 0 19.5 0ZM7 19.5C7 26.4036 12.5964 32 19.5 32C26.4036 32 32 26.4036 32 19.5C32 12.5964 26.4036 7 19.5 7C12.5964 7 7 12.5964 7 19.5Z" fill="#FFE000"/>
</svg>
