<svg width="18" height="18" viewBox="0 0 18 18" fill="none" xmlns="http://www.w3.org/2000/svg">
<path d="M3.00022 7.18923L7.93972 2.24973C8.22101 1.96852 8.60247 1.81055 9.00022 1.81055C9.39797 1.81055 9.77943 1.96852 10.0607 2.24973L15.0002 7.18923C15.2099 7.399 15.3527 7.66625 15.4106 7.95718C15.4684 8.24811 15.4387 8.54966 15.3252 8.82371C15.2117 9.09776 15.0195 9.332 14.7729 9.49683C14.5263 9.66166 14.2363 9.74966 13.9397 9.74973H11.9995L12.0002 13.4997C12.0002 13.6834 11.9328 13.8607 11.8107 13.998C11.6886 14.1353 11.5204 14.223 11.338 14.2445L11.2502 14.2497H6.75022C6.55131 14.2497 6.36054 14.1707 6.21989 14.0301C6.07924 13.8894 6.00022 13.6986 6.00022 13.4997V9.74973H4.06072C3.78458 9.74966 3.51381 9.67337 3.27826 9.52926C3.04271 9.38515 2.8515 9.17881 2.72572 8.93298L2.67472 8.82423C2.56116 8.55006 2.53148 8.24838 2.58942 7.95734C2.64736 7.66631 2.79032 7.39899 3.00022 7.18923Z" fill="#2BB94E"/>
<path d="M11.7643 15.2046C11.6253 15.0734 11.4414 15.0002 11.2503 15H6.75027L6.66252 15.0052C6.4727 15.0278 6.29866 15.122 6.17597 15.2686C6.05327 15.4152 5.99119 15.6031 6.00239 15.794C6.01359 15.9848 6.09724 16.1641 6.23624 16.2954C6.37524 16.4266 6.55911 16.4998 6.75027 16.5H11.2503L11.338 16.4948C11.5278 16.4722 11.7019 16.378 11.8246 16.2314C11.9473 16.0848 12.0093 15.8969 11.9981 15.706C11.9869 15.5152 11.9033 15.3359 11.7643 15.2046Z" fill="#2BB94E"/>
</svg>
