<svg width="38" height="38" viewBox="0 0 38 38" fill="none" xmlns="http://www.w3.org/2000/svg">
<rect width="38" height="38" rx="8" fill="#CCC8FF"/>
<path d="M23.0496 14.9874C23.2106 15.1481 23.3011 15.366 23.3011 15.5932C23.3011 15.8204 23.2106 16.0383 23.0496 16.199L16.1681 23.057C16.0069 23.2176 15.7882 23.3077 15.5603 23.3077C15.3323 23.3077 15.1137 23.2176 14.9524 23.057C14.7913 22.8963 14.7009 22.6784 14.7009 22.4512C14.7009 22.2241 14.7913 22.0062 14.9524 21.8454L21.8339 14.9874C21.9951 14.8269 22.2138 14.7367 22.4417 14.7367C22.6697 14.7367 22.8883 14.8269 23.0496 14.9874ZM27.0981 10.9412C26.4852 10.326 25.7561 9.83783 24.953 9.50467C24.1499 9.17151 23.2887 9 22.4188 9C21.5489 9 20.6876 9.17151 19.8845 9.50467C19.0814 9.83783 18.3524 10.326 17.7394 10.9412L17.2004 11.5584C17.125 11.644 17.0674 11.7435 17.0307 11.8512C16.9939 11.959 16.9789 12.0729 16.9864 12.1865C16.9938 12.3 17.0236 12.411 17.0741 12.5131C17.1246 12.6152 17.1948 12.7064 17.2806 12.7814C17.3665 12.8565 17.4663 12.9139 17.5745 12.9505C17.6826 12.9871 17.7969 13.0021 17.9109 12.9947C18.0248 12.9873 18.1362 12.9575 18.2386 12.9072C18.341 12.8569 18.4325 12.787 18.5078 12.7014L18.9895 12.1299C19.4415 11.68 19.978 11.3233 20.5684 11.0801C21.1588 10.8369 21.7914 10.712 22.4302 10.7126C23.3855 10.7215 24.3172 11.01 25.1093 11.5422C25.9015 12.0744 26.5192 12.8269 26.8858 13.7062C27.2524 14.5854 27.3516 15.5526 27.1712 16.4876C26.9907 17.4225 26.5386 18.2841 25.8709 18.9651L25.2631 19.4909C25.0897 19.6424 24.9839 19.8564 24.9688 20.0858C24.9537 20.3152 25.0307 20.5411 25.1828 20.7139C25.3349 20.8867 25.5496 20.9922 25.7798 21.0072C26.0099 21.0222 26.2366 20.9454 26.41 20.7939L27.0637 20.2224C27.6775 19.6119 28.1645 18.8868 28.4967 18.0885C28.829 17.2903 29 16.4346 29 15.5704C29 14.7061 28.829 13.8504 28.4967 13.0521C28.1645 12.2539 27.6775 11.5288 27.0637 10.9183L27.0981 10.9412ZM19.4598 25.3659L19.001 25.8802C18.0774 26.7686 16.8439 27.2651 15.5603 27.2651C14.2767 27.2651 13.0432 26.7686 12.1196 25.8802C11.6645 25.4354 11.3054 24.9025 11.0644 24.3143C10.8146 23.7247 10.6859 23.0912 10.6859 22.4512C10.6859 21.8112 10.8146 21.1777 11.0644 20.5881C11.3051 19.9998 11.6643 19.4669 12.1196 19.0222L12.7274 18.4964C12.8118 18.4214 12.8805 18.3305 12.9296 18.229C12.9787 18.1275 13.0072 18.0174 13.0136 17.9049C13.02 17.7923 13.0041 17.6797 12.9668 17.5733C12.9295 17.4669 12.8716 17.3689 12.7962 17.2849C12.7209 17.2008 12.6297 17.1324 12.5279 17.0834C12.426 17.0345 12.3155 17.006 12.2026 16.9996C12.0897 16.9933 11.9767 17.0091 11.87 17.0463C11.7632 17.0834 11.6649 17.1412 11.5805 17.2163L10.9497 17.7763C10.3294 18.3809 9.83785 19.104 9.50464 19.9023C9.17263 20.7034 9.00119 21.5616 9 22.4284C8.99987 23.2938 9.17215 24.1507 9.50685 24.9492C9.84154 25.7478 10.332 26.4722 10.9497 27.0804C12.1991 28.3103 13.8845 29 15.6406 29C17.3967 29 19.082 28.3103 20.3314 27.0804L20.4231 26.9775L20.8705 26.3717C21.0073 26.1898 21.0661 25.9612 21.0338 25.7362C21.0016 25.5111 20.8809 25.308 20.6984 25.1716C20.5159 25.0352 20.2865 24.9766 20.0606 25.0088C19.8348 25.0409 19.631 25.1611 19.4942 25.343L19.4598 25.3659Z" fill="white"/>
</svg>
