<svg width="30" height="30" viewBox="0 0 30 30" fill="none" xmlns="http://www.w3.org/2000/svg">
<rect width="30" height="30" rx="7" fill="#978FFF"/>
<path d="M15.2582 8.68219L22.6061 16.03C22.643 16.0646 22.6722 16.1067 22.6915 16.1535C22.7108 16.2003 22.7199 16.2506 22.7181 16.3012C22.7162 16.3518 22.7036 16.4014 22.6809 16.4467C22.6583 16.492 22.6262 16.5318 22.5868 16.5636L18.3648 20.7856H21.428C21.7831 20.7856 22.0709 21.0734 22.0709 21.4284C22.0709 21.7835 21.7831 22.0713 21.428 22.0713H7.92801C7.57297 22.0713 7.28516 21.7835 7.28516 21.4284C7.28516 21.0734 7.57297 20.7856 7.92801 20.7856H11.6373L7.39605 16.5443C7.36103 16.5113 7.33313 16.4714 7.31406 16.4272C7.29499 16.383 7.28516 16.3353 7.28516 16.2872C7.28516 16.239 7.29499 16.1914 7.31406 16.1472C7.33313 16.103 7.36103 16.0631 7.39605 16.03L14.7439 8.68219C14.777 8.64717 14.8168 8.61927 14.861 8.6002C14.9053 8.58113 14.9529 8.57129 15.0011 8.57129C15.0492 8.57129 15.0969 8.58113 15.1411 8.6002C15.1853 8.61927 15.2251 8.64717 15.2582 8.68219Z" fill="white"/>
</svg>
