<svg width="33" height="30" viewBox="0 0 33 30" fill="none" xmlns="http://www.w3.org/2000/svg">
<path fill-rule="evenodd" clip-rule="evenodd" d="M24.6418 21.3634C26.0712 19.25 26.9062 16.7003 26.9062 13.9552C26.9062 6.65138 20.995 0.730469 13.7031 0.730469C6.41123 0.730469 0.5 6.65138 0.5 13.9552C0.5 21.259 6.41123 27.1799 13.7031 27.1799C16.4821 27.1799 19.0605 26.32 21.1877 24.8512L22.1526 25.8177L22.1607 25.8096L25.6166 29.2711L32.5 22.3764L28.9092 18.7798L25.4858 22.2088L24.6418 21.3634ZM13.7031 22.9134C18.6698 22.9134 22.6649 18.8855 22.6649 13.9552C22.6649 9.02494 18.6698 4.99696 13.7031 4.99696C8.73645 4.99696 4.74127 9.02494 4.74127 13.9552C4.74127 18.8855 8.73645 22.9134 13.7031 22.9134Z" fill="white"/>
</svg>
