<svg width="60" height="60" viewBox="0 0 60 60" fill="none" xmlns="http://www.w3.org/2000/svg">
<path d="M36.9391 20.4126L30.3726 26.9791L23.8061 20.4126L16.1911 28.0276L30.3726 42.2091L44.5541 28.0276L36.9391 20.4126Z" fill="#978FFF"/>
<path fill-rule="evenodd" clip-rule="evenodd" d="M0 30C0 13.4315 13.4315 0 30 0C46.5685 0 60 13.4315 60 30C60 46.5685 46.5685 60 30 60C13.4315 60 0 46.5685 0 30ZM30 49.2308C19.3791 49.2308 10.7692 40.6209 10.7692 30C10.7692 19.3791 19.3791 10.7692 30 10.7692C40.6209 10.7692 49.2308 19.3791 49.2308 30C49.2308 40.6209 40.6209 49.2308 30 49.2308Z" fill="#978FFF"/>
</svg>
