<svg width="125" height="51" viewBox="0 0 125 51" fill="none" xmlns="http://www.w3.org/2000/svg">
<path fill-rule="evenodd" clip-rule="evenodd" d="M115.989 30.9521C115.989 35.763 112.062 39.7242 107.143 39.7242C102.224 39.7242 98.2973 35.763 98.2973 30.9521C98.2973 26.1412 102.224 22.1801 107.143 22.1801C112.062 22.1801 115.989 26.1412 115.989 30.9521ZM118.387 43.9071C115.372 46.5035 111.442 48.0741 107.143 48.0741C97.646 48.0741 89.9473 40.4083 89.9473 30.9521C89.9473 21.4959 97.646 13.8301 107.143 13.8301C111.442 13.8301 115.372 15.4007 118.387 17.9972V15.1465H125V47.4149H118.387V43.9071Z" fill="#FEDA00"/>
<path fill-rule="evenodd" clip-rule="evenodd" d="M52.9096 15.1465H46.2959V21.7319V27.6582H46.2939V34.2436H46.2959V40.8291H46.2939V47.4145H46.2959V47.4149H52.9096V47.4145H66.1351V40.8291H52.9096V34.2436H58.86V27.6582H52.9096V21.7319H64.8143V15.1465H52.9096Z" fill="#FEDA00"/>
<path fill-rule="evenodd" clip-rule="evenodd" d="M17.1957 39.7242C22.1148 39.7242 26.0413 35.763 26.0413 30.9521C26.0413 26.1412 22.1148 22.1801 17.1957 22.1801C12.2765 22.1801 8.34999 26.1412 8.34999 30.9521C8.34999 35.763 12.2765 39.7242 17.1957 39.7242ZM31.4421 40.5435C33.3038 37.8073 34.3913 34.5061 34.3913 30.9521C34.3913 21.4959 26.6926 13.8301 17.1957 13.8301C7.69876 13.8301 0 21.4959 0 30.9521C0 40.4083 7.69876 48.0741 17.1957 48.0741C20.815 48.0741 24.1731 46.9608 26.9435 45.0592L28.2002 46.3105L28.2108 46.2999L32.7118 50.7816L41.6766 41.8551L37 37.1985L32.5414 41.6381L31.4421 40.5435Z" fill="#FEDA00"/>
<path fill-rule="evenodd" clip-rule="evenodd" d="M80.6889 0H74.0752V40.8291H74.0742V47.4145H74.0752V47.4149H80.6889V47.4145H86.6403V40.8291H80.6889V0Z" fill="#FEDA00"/>
</svg>
