<svg width="40" height="40" viewBox="0 0 40 40" fill="none" xmlns="http://www.w3.org/2000/svg">
<path d="M40 20H8.78403V31H40V20Z" fill="#0057B7"/>
<path d="M0 9V20H27.0459V9H0Z" fill="#FFD600"/>
<path d="M22.1347 18.5308C22.1218 18.1986 22.1088 17.8409 22.1088 17.4576V17.3427C22.1088 16.9722 22.0571 16.64 21.9667 16.3461C21.8762 16.0523 21.7599 15.8096 21.6306 15.6051C21.5014 15.4135 21.3463 15.2602 21.1912 15.1452C21.0361 15.043 20.894 14.9919 20.7647 14.9919H20.6613V14.6342H20.7647C20.894 14.6342 21.0361 14.5831 21.1912 14.4936C21.3463 14.4042 21.4885 14.2509 21.6306 14.0593C21.7599 13.8549 21.8762 13.6121 21.9667 13.3055C22.0571 13.0116 22.1088 12.6539 22.1088 12.2451V12.1684C22.1088 11.2869 21.8891 10.6353 21.4497 10.2265C21.0103 9.81769 20.377 9.61328 19.5498 9.61328H17.0555V19.374H19.3948V15.8223H19.524C19.5757 15.8223 19.7049 15.8223 19.7437 15.9118C19.7566 15.9373 19.7696 15.9884 19.7696 16.1417V17.4193C19.7696 17.8026 19.7825 18.1603 19.7954 18.4925C19.8083 18.7863 19.8471 19.0802 19.8988 19.3612H22.2381C22.1864 19.1057 22.1476 18.8119 22.1347 18.5308ZM19.7825 13.4844C19.7825 13.6377 19.7696 13.6888 19.7566 13.7143C19.7179 13.8165 19.5886 13.8165 19.5369 13.8165H19.4077V11.6702H19.5369C19.5886 11.6702 19.7179 11.6702 19.7566 11.7596C19.7696 11.7852 19.7825 11.8363 19.7825 11.9768V13.4844Z" fill="#0057B7"/>
<path d="M13.0619 19.374H15.4012V11.6574H16.6678V9.62607H11.7954V11.6574H13.0619V19.374Z" fill="#0057B7"/>
<path d="M9.13298 9.63879C8.33168 9.63879 7.72425 9.8432 7.29775 10.2648C6.88418 10.6736 6.66446 11.2869 6.66446 12.1045V12.2323C6.66446 12.6283 6.67739 12.9733 6.71616 13.2671C6.75493 13.5482 6.81956 13.8037 6.91002 14.0081C7.00049 14.2125 7.11681 14.3914 7.2719 14.5447C7.42699 14.698 7.62085 14.8386 7.85349 14.9791L8.29291 15.2218C8.52555 15.3624 8.7194 15.4646 8.86157 15.554C9.00373 15.6434 9.10713 15.7201 9.17175 15.7967C9.2493 15.8734 9.28807 15.9501 9.30099 16.0395C9.31392 16.1161 9.32684 16.1928 9.32684 16.3078V17.1254C9.32684 17.3809 9.22345 17.4321 9.1459 17.4321C9.02958 17.4321 8.96496 17.3298 8.96496 17.1127V16.1289H6.65154V16.921C6.65154 17.7259 6.85833 18.3519 7.2719 18.7607C7.68547 19.1823 8.29291 19.3868 9.10713 19.3868C9.92135 19.3868 10.5546 19.1696 10.9941 18.748C11.4335 18.3264 11.6532 17.7131 11.6532 16.9082V16.7294C11.6532 16.3333 11.6403 15.9884 11.6015 15.6945C11.5627 15.4135 11.4981 15.1707 11.4205 14.9663C11.343 14.7619 11.2267 14.5958 11.0716 14.4425C10.9294 14.2892 10.7356 14.1614 10.5029 14.0337L10.1281 13.8293C9.86965 13.6887 9.64994 13.561 9.49485 13.4715C9.33976 13.3693 9.22345 13.2927 9.1459 13.216C9.06836 13.1394 9.01666 13.0499 8.99081 12.9605C8.97789 12.8839 8.96496 12.7944 8.96496 12.6922V11.9257C8.96496 11.7213 9.02958 11.6063 9.1459 11.6063C9.26222 11.6063 9.32684 11.7085 9.32684 11.9257V12.9094H11.6403V12.0918C11.6403 11.2996 11.4206 10.6864 10.9811 10.2648C10.5805 9.8432 9.9472 9.63879 9.13298 9.63879Z" fill="#0057B7"/>
<path d="M24.7712 9.62607H22.4319V19.374H24.7712V9.62607Z" fill="#0057B7"/>
<path d="M13.6177 20.7538C12.8164 20.7538 12.196 20.9582 11.7824 21.3542C11.3689 21.7503 11.1492 22.3507 11.1492 23.1301V27.8571C11.1492 28.6365 11.3559 29.2369 11.7824 29.6457C12.2089 30.0546 12.8034 30.259 13.6177 30.259C14.4448 30.259 15.0781 30.0546 15.5175 29.6457C15.9569 29.2369 16.1767 28.6365 16.1767 27.8699V25.7619H13.8761V28.0488C13.8761 28.3298 13.7598 28.3937 13.6564 28.3937C13.553 28.3937 13.4367 28.3298 13.4367 28.0488V22.9512C13.4367 22.6701 13.553 22.6063 13.6564 22.6063C13.7598 22.6063 13.8761 22.6701 13.8761 22.9512V25.2381H16.1767V23.1301C16.1767 22.3635 15.9569 21.7758 15.5175 21.367C15.0781 20.9582 14.4448 20.7538 13.6177 20.7538Z" fill="#FFD600"/>
<path d="M18.9554 20.7538H16.6807V30.2462H18.9554V26.3368H19.3818V30.2462H21.6565V20.7538H19.3818V24.4204H18.9554V20.7538Z" fill="#FFD600"/>
<path d="M29.9926 30.2462H32.2155L31.621 20.7538H27.9893L27.3431 30.2462H29.5661V28.2404H29.9926V30.2462ZM29.5661 26.324V24.8676H29.9926V26.324H29.5661Z" fill="#FFD600"/>
<path d="M26.3092 25.2892L27.1363 20.7538H24.7971V24.561H24.3706V20.7538H22.1347V30.2462H24.3706V26.4646H24.7971V30.2462H27.1363L26.3092 25.7108H25.0685V25.2892H26.3092Z" fill="#FFD600"/>
</svg>
