<svg width="57" height="41" viewBox="0 0 57 41" fill="none" xmlns="http://www.w3.org/2000/svg">
<path fill-rule="evenodd" clip-rule="evenodd" d="M50.1824 19.3897C50.1824 22.756 49.1648 25.8827 47.4227 28.4745L48.4514 29.5113L52.6238 25.3061L57 29.7168L48.6109 38.1719L44.3992 33.927L44.3891 33.9371L43.213 32.7517C40.6206 34.5529 37.4781 35.6075 34.0912 35.6075C25.2043 35.6075 18 28.3465 18 19.3897C18 10.4328 25.2043 3.17188 34.0912 3.17188C42.9781 3.17188 50.1824 10.4328 50.1824 19.3897ZM41.4011 19.3897C41.4011 23.4017 38.1639 26.7191 34.0912 26.7191C30.0185 26.7191 26.7813 23.4017 26.7813 19.3897C26.7813 15.3777 30.0185 12.0603 34.0912 12.0603C38.1639 12.0603 41.4011 15.3777 41.4011 19.3897Z" fill="#FEDA00"/>
<path d="M0 9.67188H15V13.6719H0V9.67188Z" fill="#FEDA00"/>
<path d="M0 18.6719H11V22.6719H0V18.6719Z" fill="#FEDA00"/>
<path d="M0 27.6719H15V31.6719H0V27.6719Z" fill="#FEDA00"/>
</svg>
