<svg width="49" height="49" viewBox="0 0 49 49" fill="none" xmlns="http://www.w3.org/2000/svg">
<path d="M29.0104 18.2682L24.7422 22.5364L20.474 18.2682L15.5242 23.218L24.7422 32.4359L33.9602 23.218L29.0104 18.2682Z" fill="#978FFF"/>
<path fill-rule="evenodd" clip-rule="evenodd" d="M5 24.5C5 13.7304 13.7304 5 24.5 5C35.2696 5 44 13.7304 44 24.5C44 35.2696 35.2696 44 24.5 44C13.7304 44 5 35.2696 5 24.5ZM24.5 37C17.5964 37 12 31.4036 12 24.5C12 17.5964 17.5964 12 24.5 12C31.4036 12 37 17.5964 37 24.5C37 31.4036 31.4036 37 24.5 37Z" fill="#978FFF"/>
</svg>
