<svg width="236" height="236" viewBox="0 0 236 236" fill="none" xmlns="http://www.w3.org/2000/svg">
<circle cx="118" cy="118" r="57.5" stroke="#9188FF"/>
<circle cx="118" cy="118" r="83.5" stroke="#9188FF"/>
<circle cx="118" cy="118" r="117.5" stroke="#9188FF"/>
<path d="M39.9112 24.7556L34.4832 24.6899L34.4175 30.1179L34.3346 35.5283L39.7627 35.594L45.1907 35.6597L45.2563 30.2317L39.8283 30.166L39.9112 24.7556Z" fill="#9188FF"/>
<path d="M77.5375 197.928L81.0843 205.245L88.4018 201.698L95.7072 198.186L92.1605 190.869L88.6138 183.551L81.2963 187.098L84.843 194.416L77.5375 197.928Z" fill="#9188FF"/>
<path d="M208.324 27.4063L203.913 32.0496L206.893 37.3664L201.174 34.9081L196.783 39.5401L197.65 33.39L191.951 30.9205L198.183 29.5712L199.069 23.4098L202.061 28.7467L208.324 27.4063Z" fill="#9188FF"/>
</svg>
