<svg width="226" height="35" viewBox="0 0 226 35" fill="none" xmlns="http://www.w3.org/2000/svg">
<path d="M217.947 20.3184C217.525 20.3063 217.104 20.3003 216.682 20.3003C216.261 20.3003 215.839 20.3003 215.417 20.3003H211.876L210.973 1.0957C210.985 0.698242 211.184 0.499512 211.569 0.499512C212.051 0.499512 212.846 0.49349 213.954 0.481445C215.074 0.469401 216.321 0.463379 217.694 0.463379C219.067 0.451335 220.38 0.445312 221.632 0.445312H225.408L217.947 20.3184ZM208.769 31.0137L209.474 23.6426C210.317 23.6185 211.304 23.6185 212.437 23.6426C213.569 23.6667 214.707 23.6968 215.851 23.7329C217.007 23.757 218.031 23.769 218.922 23.769C218.91 23.9497 218.88 24.3231 218.832 24.8892C218.784 25.4552 218.724 26.1056 218.651 26.8403C218.591 27.575 218.525 28.3097 218.453 29.0444C218.392 29.7912 218.332 30.4355 218.272 30.9775C218.152 31.0016 217.754 31.0137 217.08 31.0137C216.405 31.0257 215.58 31.0317 214.604 31.0317C213.629 31.0317 212.623 31.0257 211.587 31.0137C210.552 31.0137 209.612 31.0137 208.769 31.0137Z" fill="#E53E34"/>
<path d="M190.432 28.8818C189.625 28.8818 188.703 28.8517 187.667 28.7915C186.632 28.7433 185.578 28.653 184.506 28.5205C183.434 28.4001 182.428 28.2314 181.489 28.0146C180.561 27.7858 179.797 27.5088 179.194 27.1836L180.387 22.1792C182.507 22.6248 184.391 22.938 186.042 23.1187C187.692 23.2873 189.083 23.3716 190.215 23.3716C191.251 23.3716 192.04 23.3174 192.582 23.209C193.136 23.0885 193.413 22.95 193.413 22.7935C193.413 22.4442 193.226 22.2093 192.853 22.0889C192.491 21.9684 191.937 21.8299 191.19 21.6733C189.805 21.4084 188.402 21.1675 186.981 20.9507C185.572 20.7218 184.277 20.4207 183.097 20.0474C181.916 19.674 180.965 19.132 180.242 18.4214C179.532 17.7108 179.176 16.7412 179.176 15.5127C179.176 14.3685 179.514 13.417 180.188 12.6582C180.862 11.8874 181.736 11.2731 182.808 10.8154C183.88 10.3577 185.018 10.0145 186.222 9.78564C187.439 9.5568 188.595 9.40625 189.691 9.33398C190.787 9.26172 191.684 9.22559 192.383 9.22559C194.189 9.22559 195.846 9.33398 197.351 9.55078C198.857 9.76758 200.254 10.0386 201.542 10.3638L200.675 15.4224C200.302 15.326 199.76 15.2297 199.049 15.1333C198.339 15.0249 197.532 14.9225 196.628 14.8262C195.737 14.7298 194.828 14.6515 193.9 14.5913C192.973 14.5311 192.112 14.501 191.317 14.501C190.654 14.501 190.106 14.5492 189.673 14.6455C189.251 14.7298 189.041 14.8864 189.041 15.1152C189.041 15.4043 189.221 15.603 189.583 15.7114C189.944 15.8078 190.45 15.8981 191.1 15.9824C192.461 16.151 193.84 16.3377 195.237 16.5425C196.634 16.7352 197.923 17.0423 199.104 17.4639C200.296 17.8734 201.253 18.4816 201.976 19.2886C202.699 20.0835 203.06 21.1615 203.06 22.5225C203.06 23.474 202.879 24.3411 202.518 25.124C202.157 25.9069 201.512 26.5814 200.585 27.1475C199.67 27.7015 198.387 28.1291 196.737 28.4302C195.099 28.7313 192.997 28.8818 190.432 28.8818Z" fill="#E53E34"/>
<path d="M144.724 34.5547C144.712 34.2174 144.7 33.8621 144.688 33.4888C144.675 33.1154 144.669 32.742 144.669 32.3687L145.573 10.7612C146.067 10.6167 146.651 10.4782 147.325 10.3457C148.012 10.2012 148.704 10.0747 149.403 9.96631C150.101 9.85791 150.71 9.76758 151.228 9.69531L153.179 13.2905C154.359 11.8211 155.901 10.7913 157.804 10.2012C159.719 9.611 161.742 9.31592 163.874 9.31592C165.958 9.31592 167.831 9.70133 169.493 10.4722C171.167 11.231 172.486 12.2668 173.449 13.5796C174.425 14.8924 174.913 16.3859 174.913 18.0601C174.913 19.686 174.575 21.1615 173.901 22.4863C173.238 23.7992 172.329 24.9313 171.173 25.8828C170.017 26.8343 168.692 27.569 167.198 28.0869C165.717 28.5928 164.157 28.8457 162.519 28.8457C161.086 28.8457 159.713 28.659 158.4 28.2856C157.087 27.9243 155.979 27.4546 155.076 26.8765V27.0029C155.076 27.1956 155.052 27.6473 155.003 28.3579C154.967 29.0806 154.925 29.9237 154.877 30.8872C154.841 31.8628 154.823 32.8324 154.823 33.7959C153.57 33.9163 152.275 34.0368 150.938 34.1572C149.602 34.2777 148.391 34.374 147.307 34.4463C146.223 34.5186 145.422 34.5547 144.904 34.5547H144.724ZM159.665 23.9678C160.592 23.9678 161.399 23.7148 162.085 23.209C162.772 22.6911 163.302 22.0347 163.675 21.2397C164.049 20.4328 164.235 19.5957 164.235 18.7285C164.235 17.4036 163.838 16.3859 163.043 15.6753C162.26 14.9647 161.297 14.6094 160.152 14.6094C158.984 14.6094 158.069 14.7961 157.406 15.1694C156.756 15.5428 156.286 16.0186 155.997 16.5967C155.708 17.1628 155.527 17.759 155.455 18.3853C155.383 18.9995 155.347 19.5535 155.347 20.0474C155.347 21.0832 155.533 21.8901 155.907 22.4683C156.292 23.0343 156.81 23.4258 157.46 23.6426C158.123 23.8594 158.858 23.9678 159.665 23.9678Z" fill="#E53E34"/>
<path d="M125.826 28.8457C124.164 28.8457 122.508 28.7132 120.858 28.4482C119.208 28.1953 117.702 27.7256 116.341 27.0391C114.98 26.3525 113.89 25.389 113.071 24.1484C112.252 22.8958 111.843 21.2759 111.843 19.2886C111.843 16.7472 112.481 14.7118 113.758 13.1821C115.047 11.6525 116.817 10.5505 119.069 9.87598C121.334 9.18945 123.929 8.84619 126.856 8.84619C129.421 8.84619 131.716 9.23161 133.739 10.0024C135.763 10.7612 137.353 11.8753 138.509 13.3447C139.677 14.8021 140.261 16.5786 140.261 18.6743C140.261 20.4328 139.966 21.9202 139.376 23.1367C138.798 24.3411 138.009 25.3228 137.009 26.0815C136.022 26.8283 134.902 27.4064 133.649 27.8159C132.408 28.2134 131.114 28.4844 129.765 28.6289C128.416 28.7734 127.103 28.8457 125.826 28.8457ZM126.115 23.9136C127.621 23.9136 128.723 23.4198 129.421 22.4321C130.132 21.4325 130.487 20.2039 130.487 18.7466C130.487 17.4819 130.102 16.41 129.331 15.5308C128.572 14.6515 127.47 14.2119 126.025 14.2119C125.037 14.2119 124.236 14.4588 123.622 14.9526C123.008 15.4465 122.556 16.0728 122.267 16.8315C121.99 17.5783 121.852 18.3491 121.852 19.144C121.852 20.6616 122.195 21.8359 122.881 22.667C123.58 23.498 124.658 23.9136 126.115 23.9136Z" fill="#E53E34"/>
<path d="M93.2705 28.8457C91.6084 28.8457 89.9523 28.7132 88.3022 28.4482C86.6522 28.1953 85.1466 27.7256 83.7856 27.0391C82.4246 26.3525 81.3346 25.389 80.5156 24.1484C79.6966 22.8958 79.2871 21.2759 79.2871 19.2886C79.2871 16.7472 79.9255 14.7118 81.2021 13.1821C82.4909 11.6525 84.2614 10.5505 86.5137 9.87598C88.778 9.18945 91.3735 8.84619 94.3003 8.84619C96.8657 8.84619 99.1602 9.23161 101.184 10.0024C103.207 10.7612 104.797 11.8753 105.953 13.3447C107.121 14.8021 107.706 16.5786 107.706 18.6743C107.706 20.4328 107.41 21.9202 106.82 23.1367C106.242 24.3411 105.453 25.3228 104.454 26.0815C103.466 26.8283 102.346 27.4064 101.093 27.8159C99.8527 28.2134 98.5579 28.4844 97.209 28.6289C95.86 28.7734 94.5472 28.8457 93.2705 28.8457ZM93.5596 23.9136C95.0651 23.9136 96.1672 23.4198 96.8657 22.4321C97.5763 21.4325 97.9316 20.2039 97.9316 18.7466C97.9316 17.4819 97.5462 16.41 96.7754 15.5308C96.0166 14.6515 94.9146 14.2119 93.4692 14.2119C92.4816 14.2119 91.6807 14.4588 91.0664 14.9526C90.4521 15.4465 90.0005 16.0728 89.7114 16.8315C89.4344 17.5783 89.2959 18.3491 89.2959 19.144C89.2959 20.6616 89.6392 21.8359 90.3257 22.667C91.0243 23.498 92.1022 23.9136 93.5596 23.9136Z" fill="#E53E34"/>
<path d="M60.7148 28.8457C59.0527 28.8457 57.3966 28.7132 55.7466 28.4482C54.0965 28.1953 52.591 27.7256 51.23 27.0391C49.869 26.3525 48.779 25.389 47.96 24.1484C47.1409 22.8958 46.7314 21.2759 46.7314 19.2886C46.7314 16.7472 47.3698 14.7118 48.6465 13.1821C49.9352 11.6525 51.7057 10.5505 53.958 9.87598C56.2223 9.18945 58.8179 8.84619 61.7446 8.84619C64.3101 8.84619 66.6045 9.23161 68.6279 10.0024C70.6514 10.7612 72.2412 11.8753 73.3975 13.3447C74.5658 14.8021 75.1499 16.5786 75.1499 18.6743C75.1499 20.4328 74.8548 21.9202 74.2646 23.1367C73.6865 24.3411 72.8976 25.3228 71.8979 26.0815C70.9103 26.8283 69.7902 27.4064 68.5376 27.8159C67.297 28.2134 66.0023 28.4844 64.6533 28.6289C63.3044 28.7734 61.9915 28.8457 60.7148 28.8457ZM61.0039 23.9136C62.5094 23.9136 63.6115 23.4198 64.3101 22.4321C65.0207 21.4325 65.376 20.2039 65.376 18.7466C65.376 17.4819 64.9906 16.41 64.2197 15.5308C63.4609 14.6515 62.3589 14.2119 60.9136 14.2119C59.9259 14.2119 59.125 14.4588 58.5107 14.9526C57.8965 15.4465 57.4448 16.0728 57.1558 16.8315C56.8787 17.5783 56.7402 18.3491 56.7402 19.144C56.7402 20.6616 57.0835 21.8359 57.77 22.667C58.4686 23.498 59.5466 23.9136 61.0039 23.9136Z" fill="#E53E34"/>
<path d="M20.6255 28.9902C18.867 28.9902 17.0483 28.8638 15.1694 28.6108C13.3026 28.3579 11.502 27.9364 9.76758 27.3462C8.0332 26.756 6.47347 25.9551 5.08838 24.9434C3.71533 23.9316 2.6193 22.673 1.80029 21.1675C0.993327 19.6499 0.589844 17.8372 0.589844 15.7295C0.589844 13.7542 0.969238 12.0319 1.72803 10.5625C2.48682 9.08105 3.49854 7.81641 4.76318 6.76855C6.02783 5.70866 7.42497 4.83545 8.95459 4.14893C10.4842 3.45036 12.0319 2.90234 13.5977 2.50488C15.1634 2.10742 16.6268 1.8304 17.9878 1.67383C19.3608 1.50521 20.499 1.4209 21.4023 1.4209C23.3174 1.4209 25.2625 1.54134 27.2378 1.78223C29.2131 2.02311 31.104 2.43262 32.9106 3.01074C34.7173 3.57682 36.3312 4.3597 37.7524 5.35938C39.1737 6.35905 40.2998 7.61768 41.1309 9.13525C41.9619 10.6408 42.3774 12.4535 42.3774 14.5732C42.3774 16.8857 41.9318 18.867 41.0405 20.5171C40.1493 22.1672 38.9508 23.5462 37.4453 24.6543C35.9398 25.7503 34.2415 26.6175 32.3506 27.2559C30.4596 27.8822 28.5024 28.3278 26.479 28.5928C24.4676 28.8577 22.5164 28.9902 20.6255 28.9902ZM21.4927 21.6553C23.5763 21.5951 25.1903 21.0169 26.3345 19.9209C27.4787 18.8128 28.0508 17.0965 28.0508 14.772C28.0508 13.2785 27.7798 12.1102 27.2378 11.2671C26.7078 10.4119 25.9671 9.80973 25.0156 9.46045C24.0641 9.09912 22.9561 8.91846 21.6914 8.91846C19.6559 8.91846 18.042 9.46647 16.8496 10.5625C15.6572 11.6585 15.061 13.2845 15.061 15.4404C15.061 17.7048 15.6392 19.3247 16.7954 20.3003C17.9637 21.2638 19.5295 21.7155 21.4927 21.6553Z" fill="#E53E34"/>
</svg>
