<svg width="308" height="33" viewBox="0 0 308 33" fill="none" xmlns="http://www.w3.org/2000/svg">
<path d="M299.988 21.2036C299.555 21.1912 299.122 21.1851 298.689 21.1851C298.257 21.1851 297.824 21.1851 297.391 21.1851H293.754L292.826 1.46143C292.839 1.05322 293.043 0.849121 293.438 0.849121C293.933 0.849121 294.75 0.842936 295.888 0.830566C297.038 0.818197 298.318 0.812012 299.729 0.812012C301.139 0.799642 302.487 0.793457 303.773 0.793457H307.651L299.988 21.2036ZM290.562 32.188L291.286 24.6177C292.152 24.5929 293.166 24.5929 294.329 24.6177C295.492 24.6424 296.661 24.6733 297.836 24.7104C299.023 24.7352 300.075 24.7476 300.99 24.7476C300.978 24.9331 300.947 25.3166 300.897 25.8979C300.848 26.4793 300.786 27.1473 300.712 27.9019C300.65 28.6564 300.582 29.411 300.508 30.1655C300.446 30.9325 300.384 31.5942 300.322 32.1509C300.199 32.1756 299.79 32.188 299.098 32.188C298.405 32.2004 297.558 32.2065 296.556 32.2065C295.554 32.2065 294.521 32.2004 293.457 32.188C292.393 32.188 291.428 32.188 290.562 32.188Z" fill="#E53E34"/>
<path d="M266.773 29.9985C265.388 29.9985 264.003 29.813 262.617 29.4419C261.232 29.0832 259.964 28.5203 258.813 27.7534C257.675 26.9741 256.76 25.9845 256.067 24.7847C255.387 23.5724 255.047 22.1252 255.047 20.4429C255.047 18.0802 255.579 16.1011 256.643 14.5054C257.719 12.8973 259.123 11.6851 260.854 10.8687C262.599 10.0522 264.473 9.64404 266.477 9.64404C268.542 9.64404 270.274 9.89144 271.672 10.3862C273.082 10.8687 274.331 11.8088 275.42 13.2065L275.457 9.25439L283.844 9.95947L283.788 28.8667L276.812 29.3862L275.68 25.731C274.962 26.8937 273.874 27.8957 272.414 28.7368C270.954 29.578 269.074 29.9985 266.773 29.9985ZM269.928 24.3765C272.736 24.3146 274.14 22.855 274.14 19.9976C274.14 18.8224 273.781 17.839 273.063 17.0474C272.346 16.2433 271.344 15.8413 270.058 15.8413C268.709 15.8413 267.676 16.299 266.959 17.2144C266.254 18.1297 265.901 19.2121 265.901 20.4614C265.901 21.8345 266.31 22.8302 267.126 23.4487C267.942 24.0672 268.876 24.3765 269.928 24.3765Z" fill="#E53E34"/>
<path d="M249.798 29.5161L243.953 29.4419L239.073 29.479L239.611 17.1958H232.06L231.317 29.3306L223.469 29.4048H220.871L221.539 11.3882L221.613 10.5903L221.817 10.4048L250.41 10.1821L250.15 19.9976L249.798 29.5161Z" fill="#E53E34"/>
<path d="M204.246 29.98C202.527 29.98 200.832 29.8254 199.162 29.5161C197.505 29.2069 196.002 28.6812 194.653 27.939C193.305 27.1844 192.229 26.1639 191.425 24.8774C190.621 23.591 190.219 21.9644 190.219 19.9976C190.219 17.9689 190.646 16.299 191.499 14.9878C192.365 13.6642 193.497 12.6313 194.895 11.8892C196.292 11.147 197.82 10.6274 199.478 10.3306C201.135 10.0213 202.756 9.8667 204.339 9.8667C205.601 9.8667 206.906 10.0213 208.254 10.3306C209.602 10.6398 210.852 11.1346 212.002 11.8149C213.152 12.4953 214.074 13.3797 214.767 14.4683C215.459 15.5568 215.775 16.8804 215.713 18.439C215.713 18.5874 215.701 18.7297 215.676 18.8657L215.509 21.1479H200.461C200.758 22.2736 201.475 23.1457 202.613 23.7642C203.751 24.3826 205.174 24.6919 206.881 24.6919C207.932 24.6919 209.07 24.562 210.295 24.3022C211.52 24.0425 212.806 23.6343 214.154 23.0776H215.156L214.804 27.7905C214.309 28.1616 213.53 28.5142 212.466 28.8481C211.414 29.1821 210.177 29.4543 208.755 29.6646C207.332 29.8748 205.829 29.98 204.246 29.98ZM207.53 17.6968C207.518 16.4845 207.233 15.6496 206.677 15.1919C206.132 14.7342 205.403 14.5054 204.487 14.5054C203.386 14.5054 202.533 14.827 201.927 15.4702C201.333 16.1134 200.968 16.8556 200.832 17.6968H207.53Z" fill="#E53E34"/>
<path d="M155.984 30.3511C155.118 30.3511 154.358 30.3263 153.702 30.2769C153.059 30.2274 152.583 30.1965 152.273 30.1841V30.1655L152.515 24.3208C153.479 24.3208 154.327 24.1909 155.057 23.9312C155.786 23.6714 156.38 23.1395 156.838 22.3354C157.308 21.519 157.617 20.2821 157.766 18.6245L158.434 11.314L158.508 10.5161L158.712 10.3306L184.893 10.1821L184.633 19.9976L184.28 29.5161L179.178 29.4419L174.298 29.479L174.836 17.1587H167.247L166.95 20.0903C166.728 22.0942 166.381 23.7642 165.911 25.1001C165.453 26.4237 164.81 27.4689 163.981 28.2358C163.153 29.0028 162.089 29.547 160.79 29.8687C159.491 30.1903 157.889 30.3511 155.984 30.3511Z" fill="#E53E34"/>
<path d="M130.879 29.9985C129.493 29.9985 128.108 29.813 126.723 29.4419C125.337 29.0832 124.069 28.5203 122.919 27.7534C121.781 26.9741 120.866 25.9845 120.173 24.7847C119.493 23.5724 119.152 22.1252 119.152 20.4429C119.152 18.0802 119.684 16.1011 120.748 14.5054C121.824 12.8973 123.228 11.6851 124.96 10.8687C126.704 10.0522 128.578 9.64404 130.582 9.64404C132.648 9.64404 134.38 9.89144 135.777 10.3862C137.188 10.8687 138.437 11.8088 139.525 13.2065L139.562 9.25439L147.949 9.95947L147.894 28.8667L140.917 29.3862L139.785 25.731C139.068 26.8937 137.979 27.8957 136.52 28.7368C135.06 29.578 133.18 29.9985 130.879 29.9985ZM134.033 24.3765C136.841 24.3146 138.245 22.855 138.245 19.9976C138.245 18.8224 137.886 17.839 137.169 17.0474C136.451 16.2433 135.45 15.8413 134.163 15.8413C132.815 15.8413 131.782 16.299 131.064 17.2144C130.359 18.1297 130.007 19.2121 130.007 20.4614C130.007 21.8345 130.415 22.8302 131.231 23.4487C132.048 24.0672 132.982 24.3765 134.033 24.3765Z" fill="#E53E34"/>
<path d="M105.44 19.0327L115.349 29.2935L104.401 29.5347C104.092 29.5347 103.746 29.5409 103.362 29.5532C102.979 29.578 102.558 29.6027 102.101 29.6274C101.853 29.4419 101.408 28.9718 100.765 28.2173C100.134 27.4627 99.5215 26.6772 98.9277 25.8608C98.7793 26.0216 98.4948 26.3309 98.0742 26.7886C97.666 27.2463 97.1217 27.8462 96.4414 28.5884L95.8291 29.2563C95.2725 29.2935 94.7839 29.312 94.3633 29.312C94.3633 29.312 93.5345 29.2811 91.877 29.2192C90.2194 29.1574 87.7269 29.0646 84.3994 28.9409C84.4242 28.9162 84.4922 28.8481 84.6035 28.7368C84.7148 28.6131 84.8633 28.4523 85.0488 28.2544C85.222 28.0565 85.3828 27.8833 85.5312 27.7349C85.6921 27.5864 85.8343 27.4565 85.958 27.3452L93.7324 20.4058C89.3906 15.9897 86.1621 12.8973 84.0469 11.1284L97.7773 9.90381L98.3896 10.813C99.5771 12.4458 100.319 13.4849 100.616 13.9302L102.936 11.3511L103.678 10.4048C103.938 10.3924 104.271 10.3862 104.68 10.3862C105.088 10.3862 105.564 10.3862 106.108 10.3862L114.644 10.5718C112.974 11.7964 111.143 13.3983 109.151 15.3774C107.185 17.3442 105.948 18.5627 105.44 19.0327Z" fill="#E53E34"/>
<path d="M53.3018 29.4048L53.7656 17.103H46.9375L47.3271 11.0728V10.5903L47.5312 10.4048L71.5039 10.2935L71.9307 10.479L71.4668 17.1958H64.4902L63.748 29.3306L55.8994 29.4048H53.3018Z" fill="#E53E34"/>
<path d="M20.9248 30.1099C19.1188 30.1099 17.251 29.98 15.3213 29.7202C13.404 29.4604 11.5547 29.0275 9.77344 28.4214C7.99219 27.8153 6.3903 26.9927 4.96777 25.9536C3.55762 24.9146 2.43197 23.6219 1.59082 22.0757C0.762044 20.5171 0.347656 18.6554 0.347656 16.4907C0.347656 14.4621 0.737305 12.6932 1.5166 11.1841C2.2959 9.6626 3.33496 8.36377 4.63379 7.2876C5.93262 6.19906 7.36751 5.30225 8.93848 4.59717C10.5094 3.87972 12.099 3.31689 13.707 2.90869C15.3151 2.50049 16.818 2.21598 18.2158 2.05518C19.626 1.882 20.7949 1.79541 21.7227 1.79541C23.6895 1.79541 25.6872 1.91911 27.7158 2.1665C29.7445 2.4139 31.6865 2.83447 33.542 3.42822C35.3975 4.0096 37.055 4.81364 38.5146 5.84033C39.9743 6.86702 41.1309 8.15967 41.9844 9.71826C42.8379 11.2645 43.2646 13.1261 43.2646 15.3032C43.2646 17.6782 42.807 19.7131 41.8916 21.4077C40.9762 23.1024 39.7454 24.5187 38.1992 25.6567C36.653 26.7824 34.9089 27.673 32.9668 28.3286C31.0247 28.9718 29.0146 29.4295 26.9365 29.7017C24.8708 29.9738 22.8669 30.1099 20.9248 30.1099ZM21.8154 22.5767C23.9554 22.5148 25.613 21.9211 26.7881 20.7954C27.9632 19.6574 28.5508 17.8947 28.5508 15.5073C28.5508 13.9735 28.2725 12.7736 27.7158 11.9077C27.1715 11.0295 26.4108 10.411 25.4336 10.0522C24.4564 9.68115 23.3184 9.49561 22.0195 9.49561C19.929 9.49561 18.2715 10.0584 17.0469 11.1841C15.8223 12.3097 15.21 13.9797 15.21 16.1938C15.21 18.5194 15.8037 20.1831 16.9912 21.1851C18.1911 22.1746 19.7992 22.6385 21.8154 22.5767Z" fill="#E53E34"/>
</svg>
