<svg width="39" height="41" viewBox="0 0 39 41" fill="none" xmlns="http://www.w3.org/2000/svg">
<path fill-rule="evenodd" clip-rule="evenodd" d="M29.4227 28.4745C31.1648 25.8827 32.1824 22.756 32.1824 19.3897C32.1824 10.4328 24.9781 3.17188 16.0912 3.17188C7.20427 3.17188 0 10.4328 0 19.3897C0 28.3465 7.20427 35.6075 16.0912 35.6075C19.4781 35.6075 22.6206 34.5529 25.213 32.7517L26.3891 33.9371L26.3992 33.927L30.6109 38.1719L39 29.7168L34.6238 25.3061L30.4514 29.5113L29.4227 28.4745ZM16.0912 26.7191C20.1639 26.7191 23.4011 23.4017 23.4011 19.3897C23.4011 15.3777 20.1639 12.0603 16.0912 12.0603C12.0185 12.0603 8.78128 15.3777 8.78128 19.3897C8.78128 23.4017 12.0185 26.7191 16.0912 26.7191Z" fill="#FEDA00"/>
</svg>
