<svg width="40" height="40" viewBox="0 0 40 40" fill="none" xmlns="http://www.w3.org/2000/svg">
<path d="M30.7205 28.7154L29.6979 27.6881C31.4132 25.153 32.4358 22.0877 32.4358 18.7904C32.4358 10.075 25.3932 3 16.7179 3C8.04254 3 1 10.075 1 18.7904C1 27.5058 8.04254 34.5809 16.7179 34.5809C20 34.5809 23.0512 33.5702 25.5746 31.8304L30.7205 37L39 28.6823L34.8602 24.5234L30.7205 28.7154ZM16.7014 28.7154C11.2422 28.7154 6.82206 24.2749 6.82206 18.7904C6.82206 13.306 11.2422 8.8655 16.7014 8.8655C22.1606 8.8655 26.5807 13.306 26.5807 18.7904C26.5807 24.2749 22.1606 28.7154 16.7014 28.7154Z" fill="#FFDA00"/>
</svg>
